<?xml version="1.0" encoding="utf-8"?>
<!-- Generator: Adobe Illustrator 25.1.0, SVG Export Plug-In . SVG Version: 6.00 Build 0)  -->
<svg version="1.1" id="illustration" xmlns="http://www.w3.org/2000/svg" xmlns:xlink="http://www.w3.org/1999/xlink" x="0px"
	 y="0px" viewBox="0 0 600 400" style="enable-background:new 0 0 600 400;" xml:space="preserve">
<style type="text/css">
	.st0{fill:#F1F1F4;}
	.st1{fill:#E0F3FF;}
	.st2{fill:url(#SVGID_1_);}
	.st3{fill:url(#SVGID_2_);}
	.st4{fill:#E5E2FF;}
	.st5{fill:url(#SVGID_3_);}
	.st6{opacity:0.62;fill:url(#SVGID_4_);}
	.st7{opacity:0.62;fill:url(#SVGID_5_);}
	.st8{opacity:0.5;fill:url(#SVGID_6_);}
	.st9{fill:#FFFFFF;}
	.st10{fill:#A9E5EE;}
	.st11{opacity:0.5;fill:#A9E5EE;}
	.st12{opacity:0.76;fill:#A9E5EE;}
	.st13{fill:#FE9083;}
	.st14{fill:url(#SVGID_7_);}
	.st15{opacity:0.5;fill:url(#SVGID_8_);}
	.st16{fill:#35116D;}
	.st17{opacity:0.5;fill:url(#SVGID_9_);}
	.st18{fill:url(#SVGID_10_);}
	.st19{fill:url(#SVGID_11_);}
	.st20{fill:#CB4D7A;}
	.st21{fill:#EE8183;}
	.st22{fill:url(#SVGID_12_);}
	.st23{opacity:0.6;fill:url(#SVGID_13_);}
	.st24{fill:url(#SVGID_14_);}
	.st25{fill:#E28183;}
	.st26{opacity:0.91;fill:url(#SVGID_15_);}
	.st27{fill:url(#SVGID_16_);}
	.st28{opacity:0.6;fill:url(#SVGID_17_);}
	.st29{fill:url(#SVGID_18_);}
	.st30{fill:url(#SVGID_19_);}
	.st31{opacity:0.91;fill:url(#SVGID_20_);}
	.st32{opacity:0.5;fill:url(#SVGID_21_);}
	.st33{opacity:0.5;fill:url(#SVGID_22_);}
	.st34{opacity:0.5;fill:url(#SVGID_23_);}
	.st35{opacity:0.5;fill:url(#SVGID_24_);}
	.st36{opacity:0.5;fill:url(#SVGID_25_);}
	.st37{opacity:0.5;fill:url(#SVGID_26_);}
	.st38{opacity:0.5;fill:url(#SVGID_27_);}
	.st39{opacity:0.76;fill:url(#SVGID_28_);}
	.st40{opacity:0.5;fill:url(#SVGID_29_);}
	.st41{opacity:0.3;fill:url(#SVGID_30_);}
	.st42{opacity:0.5;fill:url(#SVGID_31_);}
	.st43{opacity:0.5;fill:url(#SVGID_32_);}
	.st44{opacity:0.5;fill:url(#SVGID_33_);}
	.st45{opacity:0.5;fill:url(#SVGID_34_);}
	.st46{fill:url(#SVGID_35_);}
	.st47{opacity:0.5;fill:url(#SVGID_36_);}
	.st48{opacity:0.3;fill:url(#SVGID_37_);}
	.st49{opacity:0.5;fill:url(#SVGID_38_);}
	.st50{opacity:0.5;fill:url(#SVGID_39_);}
	.st51{opacity:0.5;fill:url(#SVGID_40_);}
	.st52{opacity:0.5;fill:#7A4AC0;}
	.st53{fill:url(#SVGID_41_);}
	.st54{fill:url(#SVGID_42_);}
	.st55{fill:url(#SVGID_43_);}
	.st56{opacity:0.6;fill:url(#SVGID_44_);}
	.st57{fill:#38368E;}
	.st58{fill:url(#SVGID_45_);}
	.st59{fill:url(#SVGID_46_);}
	.st60{fill:#FFEBED;}
	.st61{fill:#7F9EC9;}
	.st62{fill:#131163;}
	.st63{fill:#C6659C;}
	.st64{fill:#CB5F7D;}
	.st65{fill:#9F4A8B;}
	.st66{fill:#FFBCAF;}
	.st67{opacity:0.6;fill:url(#SVGID_47_);}
	.st68{fill:#D2726C;}
	.st69{opacity:0.6;fill:url(#SVGID_48_);}
	.st70{opacity:0.5;fill:url(#SVGID_49_);}
	.st71{fill:url(#SVGID_50_);}
	.st72{fill:url(#SVGID_51_);}
	.st73{fill:url(#SVGID_52_);}
	.st74{opacity:0.8;fill:url(#SVGID_53_);}
	.st75{opacity:0.8;fill:url(#SVGID_54_);}
	.st76{fill:#34C7FF;}
	.st77{fill:url(#SVGID_55_);}
	.st78{opacity:0.6;fill:#36D1F7;}
	.st79{fill:#744CA2;}
	.st80{opacity:0.6;fill:url(#SVGID_56_);}
	.st81{opacity:0.3;fill:url(#SVGID_57_);}
	.st82{opacity:0.3;fill:url(#SVGID_58_);}
	.st83{opacity:0.3;fill:url(#SVGID_59_);}
	.st84{opacity:0.3;fill:url(#SVGID_60_);}
	.st85{fill:#D1D4FB;}
	.st86{fill:#E0FFFF;}
	.st87{opacity:0.73;}
	.st88{fill:#36D1F7;}
	.st89{opacity:0.81;fill:#A9E5EE;}
	.st90{opacity:0.6;}
	.st91{opacity:0.73;fill:#36D1F7;}
	.st92{opacity:0.73;fill:#E0F3FF;}
	.st93{fill-rule:evenodd;clip-rule:evenodd;fill:url(#SVGID_61_);}
	.st94{fill-rule:evenodd;clip-rule:evenodd;fill:url(#SVGID_62_);}
	.st95{fill-rule:evenodd;clip-rule:evenodd;fill:url(#SVGID_63_);}
	.st96{opacity:0.5;fill-rule:evenodd;clip-rule:evenodd;fill:#601734;}
	.st97{fill-rule:evenodd;clip-rule:evenodd;fill:#B3D9FF;}
	.st98{fill-rule:evenodd;clip-rule:evenodd;fill:url(#SVGID_64_);}
	.st99{fill-rule:evenodd;clip-rule:evenodd;fill:url(#SVGID_65_);}
	.st100{fill-rule:evenodd;clip-rule:evenodd;fill:url(#SVGID_66_);}
	.st101{fill-rule:evenodd;clip-rule:evenodd;fill:url(#SVGID_67_);}
	.st102{fill:none;}
	.st103{font-family:'Gotham-Bold';}
	.st104{font-size:2.2395px;}
</style>
<g>
	<path class="st0" d="M157.2,184.6c0-0.2,0.1-0.3,0.3-0.3l6.3,0.2c0.6,0,1.2,0.1,1.6,0.3c0.4,0.2,0.8,0.4,1,0.7s0.4,0.7,0.6,1.1
		c0.1,0.4,0.2,0.9,0.1,1.4l-0.1,1.7c0,0.5-0.1,1-0.2,1.4c-0.1,0.4-0.3,0.8-0.6,1c-0.3,0.3-0.6,0.5-1.1,0.6c-0.4,0.1-1,0.2-1.6,0.2
		l-3.4-0.1l-0.7-2l-0.1,0l-0.1,2l-2.4-0.1L157.2,184.6z M159.4,190.5l4,0.1c0.5,0,0.8-0.1,1-0.3c0.2-0.2,0.3-0.5,0.3-1.1l0-1.4
		c0-0.5-0.1-0.9-0.3-1.1c-0.2-0.2-0.5-0.3-1-0.3l-3.9-0.1c-0.1,0-0.1,0-0.1,0c0,0,0,0.1,0,0.1L159.4,190.5z"/>
	<path class="st0" d="M170.6,188.2L170.6,188.2l-0.2,2.5c0,0.1,0,0.2,0.2,0.2l7.1,0.2l-0.1,2.2l-9.3-0.3c-0.2,0-0.3-0.1-0.3-0.4
		l0.2-7.7c0-0.2,0.1-0.3,0.3-0.3l9,0.3c0.2,0,0.3,0.1,0.3,0.4l-0.1,2.2l-2.2,0.8l-0.1,0l0-1.1c0-0.1,0-0.1-0.1-0.1l-4.8-0.1
		c-0.1,0-0.1,0-0.1,0c0,0,0,0.1,0,0.1l0,1.1l3.9,0.1l-0.1,1.7l-3.3-0.1L170.6,188.2z"/>
	<path class="st0" d="M186.4,188L186.4,188l-0.1-0.9c0-0.1,0-0.1-0.1-0.1l-4.4-0.1c-0.2,0-0.3,0-0.3,0.1c-0.1,0.1-0.1,0.2-0.1,0.3
		l0,0.2c0,0.2,0,0.3,0.1,0.3c0.1,0,0.2,0.1,0.3,0.1l5.2,0.9c0.3,0.1,0.6,0.1,0.8,0.2c0.2,0.1,0.4,0.2,0.6,0.4
		c0.1,0.2,0.2,0.4,0.3,0.6c0.1,0.2,0.1,0.5,0.1,0.8l0,0.7c0,0.3-0.1,0.7-0.2,0.9c-0.1,0.3-0.2,0.5-0.4,0.7c-0.2,0.2-0.5,0.3-0.8,0.4
		c-0.3,0.1-0.7,0.1-1.2,0.1l-7.5-0.2l0.1-2.2l6.7,0.2c0.2,0,0.3,0,0.4-0.1c0.1-0.1,0.1-0.2,0.1-0.4l0-0.2c0-0.1,0-0.3-0.1-0.3
		c0-0.1-0.1-0.1-0.3-0.1l-5-0.8c-0.3-0.1-0.6-0.1-0.9-0.2c-0.2-0.1-0.4-0.2-0.6-0.4c-0.1-0.2-0.3-0.4-0.3-0.6
		c-0.1-0.2-0.1-0.5-0.1-0.8l0-0.6c0-0.6,0.2-1.1,0.5-1.4c0.3-0.3,0.9-0.5,1.6-0.5l7.5,0.2c0.2,0,0.4,0.1,0.3,0.4l-0.1,1.7L186.4,188
		z"/>
	<path class="st0" d="M189.5,193.6l0.3-8.4l2.4,0.1l-0.3,8.4L189.5,193.6z"/>
	<path class="st0" d="M200.7,190.4c0-0.1,0-0.3,0-0.4c0-0.1,0-0.3,0-0.4l0-0.1l2.4,0.1l-0.1,4.1c0,0.2-0.1,0.3-0.3,0.3l-6.3-0.2
		c-0.6,0-1.2-0.1-1.6-0.3c-0.4-0.2-0.8-0.4-1-0.7c-0.3-0.3-0.4-0.7-0.6-1.1c-0.1-0.4-0.2-0.9-0.1-1.4l0.1-1.7c0-0.5,0.1-1,0.2-1.4
		c0.1-0.4,0.3-0.8,0.6-1c0.3-0.3,0.6-0.5,1.1-0.6c0.4-0.1,1-0.2,1.6-0.2l6.3,0.2c0.2,0,0.3,0.1,0.3,0.4l-0.1,1.8l-2.2,0.7l-0.1,0
		l0-0.8c0-0.1,0-0.1-0.1-0.1l-4-0.1c-0.2,0-0.4,0-0.6,0c-0.2,0-0.3,0.1-0.4,0.2c-0.1,0.1-0.2,0.2-0.2,0.4c-0.1,0.2-0.1,0.4-0.1,0.6
		l0,1.5c0,0.5,0.1,0.9,0.3,1.1c0.2,0.2,0.5,0.3,1,0.3l4,0.1c0.1,0,0.1,0,0.1-0.1L200.7,190.4z"/>
	<path class="st0" d="M208.1,185.8c0.2,0,0.3,0,0.4,0.1c0.1,0.1,0.1,0.1,0.2,0.3l3,6.1c0.1,0.1,0.1,0.1,0.2,0.1l0.1,0
		c0.1,0,0.2-0.1,0.2-0.2l0.2-6.3l2.2,0.1l-0.2,8.1c0,0.2-0.1,0.3-0.3,0.3l-3.4-0.1c-0.2,0-0.3,0-0.4-0.1c-0.1,0-0.2-0.1-0.2-0.3
		l-3.1-6.1c0-0.1-0.1-0.1-0.2-0.1l-0.1,0c-0.1,0-0.2,0.1-0.2,0.2l-0.2,6.3l-2.2-0.1l0.2-8.1c0-0.2,0.1-0.3,0.3-0.3L208.1,185.8z"/>
</g>
<ellipse transform="matrix(0.7071 -0.7071 0.7071 0.7071 -50.7884 245.4668)" class="st1" cx="270.9" cy="184" rx="145.9" ry="145.9"/>
<g>
	
		<linearGradient id="SVGID_1_" gradientUnits="userSpaceOnUse" x1="152.961" y1="265.515" x2="152.961" y2="198.5092" gradientTransform="matrix(0.906 -0.4233 0.4233 0.906 -75.0515 53.7421)">
		<stop  offset="0" style="stop-color:#DBCCFF"/>
		<stop  offset="1" style="stop-color:#D1BBFF"/>
	</linearGradient>
	<path class="st2" d="M163.7,174.7c-3.6-6.2-9.9-8.7-9.9-8.7l-2.2,1l5,9c-0.7,3.5-3,5.4-3,5.4l0,0c0,0-3,0.6-6.1-1.1l-3.7-9.6
		l-2.2,1c0,0-2.1,6.5,0.3,13.2c0,0,0.9,2.2,1.1,2.4c0.9,1,3.2,2.2,7.6,1.9l15.3,29.1c-1.3,2.2-1.5,4.9-0.3,7.4
		c1.9,4,6.6,5.7,10.6,3.9c4-1.9,5.7-6.6,3.9-10.6c-1.1-2.5-3.4-4-5.9-4.5l-12.5-30.4c3-3.1,3.6-5.6,3.4-7.1
		C164.7,176.8,163.7,174.7,163.7,174.7z M176.2,224.9l-4,1.9l-3.7-2.6l0.4-4.4l4-1.9l3.7,2.6L176.2,224.9z"/>
	
		<linearGradient id="SVGID_2_" gradientUnits="userSpaceOnUse" x1="152.9571" y1="268.1291" x2="152.9571" y2="201.1233" gradientTransform="matrix(0.906 -0.4233 0.4233 0.906 -75.0515 53.7421)">
		<stop  offset="0" style="stop-color:#B5A6E7"/>
		<stop  offset="1" style="stop-color:#7760BF"/>
	</linearGradient>
	<path class="st3" d="M164.8,177.1c-3.6-6.2-9.9-8.7-9.9-8.7l-2.2,1l5,9c-0.7,3.5-3,5.4-3,5.4l0,0c0,0-3,0.6-6.1-1.1l-3.7-9.6
		l-2.2,1c0,0-2.1,6.5,0.3,13.2c0,0,3.4,4.6,8.7,4.3l15.3,29.1c-1.3,2.2-1.5,4.9-0.3,7.4c1.9,4,6.6,5.7,10.6,3.9
		c4-1.9,5.7-6.6,3.9-10.6c-1.1-2.5-3.4-4-5.9-4.5l-12.5-30.4C166.1,182.7,164.8,177.1,164.8,177.1z M177.3,227.2l-4,1.9l-3.7-2.6
		l0.4-4.4l4-1.9l3.7,2.6L177.3,227.2z"/>
	<rect x="141.8" y="171.1" transform="matrix(0.906 -0.4233 0.4233 0.906 -59.522 76.7616)" class="st4" width="2.4" height="2.6"/>
	
		<rect x="151.9" y="166.4" transform="matrix(0.906 -0.4233 0.4233 0.906 -56.5818 80.6007)" class="st4" width="2.4" height="2.6"/>
	
		<rect x="172.5" y="225.7" transform="matrix(0.906 -0.4233 0.4233 0.906 -79.6645 95.3019)" class="st4" width="4.5" height="2.6"/>
	<g>
		
			<linearGradient id="SVGID_3_" gradientUnits="userSpaceOnUse" x1="152.957" y1="251.4706" x2="152.957" y2="223.2265" gradientTransform="matrix(0.906 -0.4233 0.4233 0.906 -75.0515 53.7421)">
			<stop  offset="0" style="stop-color:#B5A6E7"/>
			<stop  offset="1" style="stop-color:#7760BF"/>
		</linearGradient>
		<path class="st5" d="M154.8,193.8l12.3,23.7c3.2,0.1,5-2.3,5-2.3l-10-24.7C157.5,190.2,154.8,193.8,154.8,193.8z M171.1,215.3
			c-0.4,0.3-0.9,0.7-1.6,1c-0.5,0.3-1.1,0.4-1.7,0.5l-12.3-23.2c0.6-0.5,1.6-1.3,3-1.9c1-0.5,2-0.8,3-0.9L171.1,215.3z"/>
		<path class="st4" d="M171.1,215.3l1-0.2c0,0-1.4,2.5-5,2.3l0.7-0.6C167.8,216.9,169.6,216.7,171.1,215.3z"/>
		
			<linearGradient id="SVGID_4_" gradientUnits="userSpaceOnUse" x1="148.9488" y1="223.7918" x2="156.9651" y2="223.7918" gradientTransform="matrix(0.906 -0.4233 0.4233 0.906 -75.0515 53.7421)">
			<stop  offset="0" style="stop-color:#8B8BE0"/>
			<stop  offset="1" style="stop-color:#A177B7"/>
		</linearGradient>
		<path class="st6" d="M154.8,193.8l0.7-0.1c0,0,2.1-2.2,6-2.8l0.5-0.5c0,0-1.6-0.3-4,0.9C155.6,192.4,154.8,193.8,154.8,193.8z"/>
	</g>
	
		<linearGradient id="SVGID_5_" gradientUnits="userSpaceOnUse" x1="152.957" y1="225.6527" x2="152.957" y2="220.8001" gradientTransform="matrix(0.906 -0.4233 0.4233 0.906 -75.0515 53.7421)">
		<stop  offset="0" style="stop-color:#FFFFFF"/>
		<stop  offset="1" style="stop-color:#A177B7"/>
	</linearGradient>
	<path class="st7" d="M151.5,191.6c0,0,5.9-1.1,11-5.1l1.6,3.9c0,0-1.8-1.8-5.8-0.2c-4.7,1.9-4.4,5.7-4.4,5.7L151.5,191.6z"/>
	
		<linearGradient id="SVGID_6_" gradientUnits="userSpaceOnUse" x1="157.1966" y1="254.3537" x2="157.1966" y2="223.2172" gradientTransform="matrix(0.906 -0.4233 0.4233 0.906 -75.0515 53.7421)">
		<stop  offset="0" style="stop-color:#000000"/>
		<stop  offset="1" style="stop-color:#FFFFFF"/>
	</linearGradient>
	<path class="st8" d="M164.1,190.4c-1.1-0.8-2.4-0.8-2.4-0.8l11.9,28.8l1.4-1.5L164.1,190.4z"/>
	<path class="st9" d="M164.1,190.4c0,0-1.3,3.8,2.3,5.7L164.1,190.4z"/>
</g>
<g>
	<g>
		<path class="st10" d="M343.6,400h-39.3c-4.6-25.7-20.3-82.7-20.3-82.7c-2.6-1.6-7.7,0.4-7.7,0.4L257.9,400h-37.3
			c-9.4-43.5,16.7-101,16.7-101l0,0c-0.1-0.1-0.7-1.4-0.5-2.2c0.1-0.4,0.7-1.1,1.5-1.8c1.1-1,2.4-2,2.4-2l75.4-0.5
			c0,0,0.8,0.4,1.7,1h0c1.6,1,3.9,2.5,3.9,3.7c0,1.6-0.6,2.6-0.8,2.8l0,0C346.9,333,343.6,400,343.6,400z"/>
		
			<ellipse transform="matrix(0.2248 -0.9744 0.9744 0.2248 -150.9136 502.8975)" class="st11" cx="240.6" cy="346.3" rx="43.6" ry="16.9"/>
		
			<ellipse transform="matrix(0.9629 -0.2698 0.2698 0.9629 -81.451 99.2238)" class="st11" cx="320.2" cy="345.9" rx="16.9" ry="43.6"/>
		<g>
			<path class="st10" d="M254.8,376.5l-0.5-0.1c5.1-30.3,18.2-55.7,18.3-56l0.1-0.1l3.3-2.9l0.3,0.4l-3.3,2.9
				C272.5,321.9,259.8,346.9,254.8,376.5z"/>
		</g>
		<g>
			<path class="st10" d="M305.3,376.5c-5-29.7-18-54.9-18.6-56l-2.9-2.6l0.3-0.4l3,2.7c0.1,0.3,13.5,25.9,18.7,56.2L305.3,376.5z"/>
		</g>
		<path class="st12" d="M321.7,297.2c0,1.6-0.6,2.6-0.8,2.8l0,0c-15.7,3.5-27.6,18.2-27.6,18.2c8.6,16.4,17.6,58.3,17.6,58.3
			l-6.6,23.5c-4.6-25.7-20.3-82.7-20.3-82.7c-2.6-1.6-7.7,0.4-7.7,0.4L257.9,400l-8.4-23.5c3.7-24.6,14.8-54.7,14.8-54.7
			c-10.9-12.7-27-22.8-27-22.8l0,0l-1.9-1.2l1.4-1c7,6.7,29.5,15.5,30.2,15.7L238.3,295c1.1-1,2.4-2,2.4-2l75.4-0.5
			c0,0,0.8,0.4,1.7,1l-20.6,11.3L321.7,297.2z"/>
		<polygon class="st12" points="283.9,317.3 292.7,311.6 290.6,317.3 288.6,334.5 		"/>
		<polygon class="st12" points="276.2,317.7 267,312.5 247.4,303.7 272.4,320.2 273.9,326.1 		"/>
	</g>
</g>
<path class="st13" d="M301.4,140.9c0.1,0.4,0.1,0.6,0.1,0.6c-0.5,1.9-1,3.7-1.6,5.3c-1.8,5.3-4.1,9.1-5.9,11.4c-1.5,2-2.6,3-2.6,3
	c-13.7-4.3-20.5-17.7-23.1-24.4c0,0,0-0.1,0-0.1c-0.5-1.3-0.8-2.3-1-2.9c0,0,0,0,0,0c-0.2-0.5-0.2-0.8-0.2-0.8
	c0.1-0.1,0.1-0.2,0.2-0.3l0,0c0.2-0.5,0.5-1,0.7-1.4c1.8-3.9,3-7.6,3.8-10.5c0.7-2.5,1-4.4,1.2-5.4c0.1-0.5,0.1-0.8,0.1-0.8l6.4,3.4
	l22.1,11.7c-0.3,2-0.5,3.9-0.5,5.6c0,1.2,0,2.2,0.1,3.1c0.1,1.1,0.2,2,0.3,2.5v0C301.4,140.8,301.4,140.8,301.4,140.9z"/>
<linearGradient id="SVGID_7_" gradientUnits="userSpaceOnUse" x1="284.5509" y1="166.0816" x2="284.5509" y2="132.5641">
	<stop  offset="0" style="stop-color:#D5CDF8"/>
	<stop  offset="1" style="stop-color:#F3EDFB"/>
</linearGradient>
<path class="st14" d="M295.3,162.7c-1.3,1.3-2.8,2.4-4.6,3.3c0,0-0.1,0-0.1,0.1c0,0,0,0-0.1-0.1l0,0c-0.5-0.3-2.1-1.3-4.3-3
	c-5.8-4.3-15.4-13.1-18.1-24.9c0,0,0,0,0,0c-0.3-1.4-0.5-2.8-0.7-4.3c0,0,0,0,0,0c0-0.4-0.1-0.8-0.1-1.2c0,0,1.9,4.5,5.2,9.3
	c3.9,5.7,9.7,11.9,16.7,12c6,0,9.1-4.1,10.7-7.9c0.7-1.6,1.1-3.2,1.3-4.3c0,0,0,0,0,0c0.1-0.3,0.1-0.6,0.2-0.9v0c0-0.1,0-0.2,0-0.3
	c0.1-0.4,0.1-0.7,0.1-0.7S303.8,154.1,295.3,162.7z"/>
<linearGradient id="SVGID_8_" gradientUnits="userSpaceOnUse" x1="267.296" y1="149.2899" x2="301.8058" y2="149.2899">
	<stop  offset="0" style="stop-color:#CCCCFF"/>
	<stop  offset="1" style="stop-color:#755CBB"/>
</linearGradient>
<path class="st15" d="M295.3,162.7c-1.3,1.3-2.8,2.4-4.6,3.3h-0.1l-0.1,0l0,0c-0.5-0.3-2.1-1.3-4.3-3c-5.8-4.3-15.4-13.1-18.1-24.9
	c0,0,0,0,0,0c-0.3-1.4-0.5-2.8-0.7-4.3c0,0,0,0,0,0c0-0.4-0.1-0.8-0.1-1.2c0,0,1.9,4.5,5.2,9.3c0,0,3.8,10.4,12,15.6
	c4.1,2.6,7.2,2.2,9.5,0.7c2.3-1.5,3.8-4.2,4.7-6.2c0.9-2,1.2-3.9,1.2-5.3c0-0.3,0-0.6,0-0.8c0.7-1.6,1.1-3.2,1.3-4.3c0,0,0,0,0,0
	c0.1-0.3,0.1-0.6,0.2-0.9v0c0-0.1,0-0.2,0-0.3c0.1-0.4,0.1-0.7,0.1-0.7S303.8,154.1,295.3,162.7z"/>
<path class="st16" d="M348.2,248c-0.1,0-0.2,0.1-0.2,0.1c-0.8,0.1-3.2-0.4-6.3-3.2l0,0c0,0,0,0,0,0c0,0,0,0,0,0
	c-2.6-2.3-5.8-6.2-9-12.5c-6.3-12.6-8.1-21-8.4-22.5l0-0.2l-3.7,5.8c-2.5,7.5-7.2,38.5-7.1,39.9c0.1,1.3,4.2,7.8,4.1,8.6
	c0,0,0,0,0,0c-0.1,0.8-2,2.6-2.5,4.5c-0.4,1.3,2.1,5.4,3.9,8.4v0c0.9,1.6,1.6,2.9,1.6,3.4c0,1.4-4.5,8.4-4.5,8.4v3.7l-0.1,0.1
	l-0.2,0.2l-0.2,0.1c-1.7,1.3-8.9,5.7-31.3,6.9c-26.6,1.4-44.3-7.1-44.3-7.1l1.3-3.7c0,0-1.2-1.1-1.3-1.6c-0.1-0.5,1-1.8,1-1.8
	s-2.7-1.4-2.7-3.2c0-1.8,5.4-7.3,5.2-12c-0.2-4.7-4.3-8.9-4.8-11.6c-0.5-2.7,7-9.3,7-9.3c-6.4-20.3-7.7-47.6-7.7-47.6l-1.2-1.4
	c0,0-7.7,17.5-14.6,26c-0.8,1-1.7,2-2.6,3c-1.9,2.1-4,4.1-6,5.8c-4.8,4.2-9.2,7-10.3,6.7c-1.8-0.4-8.9-14.4-8.6-28.9
	c0.2-6.9,4.3-14.6,8.6-20.7c0.5-0.7,0.9-1.3,1.4-1.9c3-4.2,6-7.4,7.4-8.9c0.5-0.6,0.9-0.9,0.9-0.9s-1-3.2-1.6-5.9c0-0.1,0-0.1,0-0.2
	c0,0,0-0.1,0-0.1c0,0,0-0.1,0-0.1c-0.4-1.7-0.6-3.1-0.4-3.5c0.6-1,4-2,4.6-2.7c0.6-0.7,3.1-12.7,5-14c1.8-1.3,5-2.2,15.7-6.4
	c0.5-0.2,1.1-0.4,1.6-0.6c12-4.8,23.8-10.5,23.8-10.5l4.5-5.6h2l-0.7,1.4l0,0c0.3,1.4,0.7,2.8,1.1,4.1c0,0,0,0.1,0,0.1
	c6.2,19.6,22.2,25.9,22.2,25.9c11.1-8.2,10.9-21.2,10.9-21.2v-1.8l2.1,0.6l1.4,3.4c0,0,2.4,3.7,12,7.9c1.6,0.7,3.4,1.6,5.2,2.7
	c8.7,5,18.4,12.6,19.2,14.3c0.1,0.2,0.2,0.4,0.3,0.8v0c1,4,3.1,19.1,5.1,24.5c1.2,3.4,3.2,5.2,4.6,6.2c0,0,0,0,0,0
	c1.1,0.7,1.8,1,1.8,1c0.2,0.8,0.3,1.6,0.4,2.5C357.7,229.3,349.9,246.8,348.2,248z"/>
<linearGradient id="SVGID_9_" gradientUnits="userSpaceOnUse" x1="204.5907" y1="194.7564" x2="245.7228" y2="194.7564">
	<stop  offset="0" style="stop-color:#CCCCFF"/>
	<stop  offset="1" style="stop-color:#755CBB"/>
</linearGradient>
<path class="st17" d="M245.7,199.3l-7.8,2.6l-1.2-1.4c0,0-7.7,17.5-14.6,26c-0.8,1-1.7,2-2.6,3c-1.9,2.1-4,4.1-6,5.8l-5.9-25.5
	l-3-19.3c3-4.2,6-7.4,7.4-8.9c0.5-0.6,0.9-0.9,0.9-0.9s-1-3.2-1.6-5.9c0-0.1,0-0.1,0-0.2c0,0,0-0.1,0-0.1c0,0,0-0.1,0-0.1
	c-0.4-1.7-0.6-3.1-0.4-3.5c0.6-1,4-2,4.6-2.7c0.6-0.7,3.1-12.7,5-14c0,0-1.2,11.5,5.4,26.2l3.2,4.5l9.4,7.5
	C238.3,192.4,241.8,197.2,245.7,199.3z"/>
<linearGradient id="SVGID_10_" gradientUnits="userSpaceOnUse" x1="203.3185" y1="242.0583" x2="203.3185" y2="163.079">
	<stop  offset="0" style="stop-color:#9E8CEF"/>
	<stop  offset="1" style="stop-color:#DAC7F3"/>
</linearGradient>
<path class="st18" d="M223.3,220.2c-1.7,12.4-20.1,21.9-20.1,21.9c-4.1,0-8.7-7.1-12.8-15.9c-4.2-8.8-4.4-34.1-4.6-35.6
	c-0.2-1.6-2.5-4.7-2.7-6c-0.1-1.3,3.7-4.1,3.7-4.1l0-0.1l0-0.1c-0.4-0.9-2.7-5.8-2.5-6.6c0.2-1,4.5-3.1,4.5-3.1l0.3,4.8
	c0,0,10.1-1.9,13.6-9.8l0.6-2.4l1.7,1.1v10.3c0,0,0.3,1.6,0.9,1.6c0.5,0,4.5-2,5.3-1.7c0.8,0.3,1.7,5.8,2.8,6.5
	c1.1,0.7,4,2.8,4.5,3.7c0.2,0.4,0.2,2,0.2,3.9c0,2.3,0,5,0.4,6.5C219.6,197.9,224.9,207.8,223.3,220.2z"/>
<linearGradient id="SVGID_11_" gradientUnits="userSpaceOnUse" x1="339.1315" y1="219.2955" x2="392.1283" y2="219.2955">
	<stop  offset="0" style="stop-color:#A999F1"/>
	<stop  offset="1" style="stop-color:#DAC7F3"/>
</linearGradient>
<path class="st19" d="M391.8,209.6c-0.8,1.3-5,4-6.1,5.1c-1.1,1.1,0,4.6,0,4.6c-17.5,18.6-35.7,27.8-37.5,28.7
	c-0.1,0-0.2,0.1-0.2,0.1c-11-7.4-10-19.5-6.4-29.8c3.5-9.8,9.5-17.9,9.7-18.2l0,0c0,0,0,0,0,0c0.2-0.1,3.3-1.4,5.6-1.5
	c0.7-0.1,1.4,0.2,2.1,0.6c1.3,0.8,2.5,2.1,3.6,1.6c1.6-0.8,5.2-9.3,7.6-9.5c1.7-0.2,4.1,1.6,5.6,2.6c0.7,0.4,1.2,0.7,1.5,0.6
	c0.9-0.2,3.9-3.9,4.2-4c0.2-0.1,1.6,0.9,1.6,0.9l-1,1.2c1.5,8.6,6.4,14.3,6.4,14.3l3.3-4.8C391.8,202.1,392.6,208.3,391.8,209.6z"/>
<path class="st20" d="M301.5,140.5c0,0.1,0,0.2,0,0.4c0,0.3-0.1,0.5-0.2,0.8c0,0,0,0,0,0c-1.1,4.2-5.6,8.4-11.4,6.4
	c-6.2-2.2-18.1-27.4-18.1-27.4l1.2-5.4l28.2,23l0.3,2.2L301.5,140.5z"/>
<g>
	<path class="st21" d="M207.6,135.9c0,0-1.7-9.5-1-16.5c0.8-7-0.2-15-0.2-15s-1.7-0.7-3,0c-1.2,0.7-4.2,8-2.9,13.8
		c1.3,5.8,0.3,19.8,0.3,19.8h-2l-4.3-5.9l-2.1-0.6c0,0-12,11.3-11.8,18l1.6,6l14.8-0.5l9.6-11L207.6,135.9z"/>
	<linearGradient id="SVGID_12_" gradientUnits="userSpaceOnUse" x1="186.0795" y1="152.3098" x2="186.0795" y2="131.4854">
		<stop  offset="1.598750e-02" style="stop-color:#FFC2A9"/>
		<stop  offset="1" style="stop-color:#FF9595"/>
	</linearGradient>
	<path class="st22" d="M192.6,131.5c0,0,0.3,7.5,2,13.9c0,0-0.3,2.6-3.4,2.8l-0.8-0.8c0,0-0.5,3-3.3,3.2l-2.6-2.6l0.7,2.1
		c0,0-0.9,2.3-3.4,2.2c0,0-4.1-3.2-4.4-7.4l4.1-3.4v-2.6l4.8-3.4l0.1-1.9C186.5,133.5,189.3,131.4,192.6,131.5z"/>
	<linearGradient id="SVGID_13_" gradientUnits="userSpaceOnUse" x1="199.1927" y1="151.8168" x2="199.1927" y2="117.3456">
		<stop  offset="0" style="stop-color:#FFEADB"/>
		<stop  offset="0.9944" style="stop-color:#C27CB6"/>
	</linearGradient>
	<path class="st23" d="M206.8,117.3c0,0-0.7,1.8-1.7,2.5c-1,0.7-4,1.3-4,1.3l-0.1,16.8h-2l-4.3-5.9c0,0,2.2,3.4,2.3,5.9l-1.7,0.8
		l-1.5-5l-0.7,3.6l0.7,4.5c0,0,2.5-2.2,7.1-2.3l0.7,1.3c0,0-8.3,6.9-10.2,10.9c0,0,4.1-5.2,13.5-11l0.9-2.8l1.2-6.6
		C207,131.5,205.8,122,206.8,117.3z"/>
	<linearGradient id="SVGID_14_" gradientUnits="userSpaceOnUse" x1="198.0743" y1="175.2681" x2="198.0743" y2="122.1257">
		<stop  offset="1.598750e-02" style="stop-color:#FFC2A9"/>
		<stop  offset="1" style="stop-color:#FF9595"/>
	</linearGradient>
	<path class="st24" d="M213.8,146.6c-0.8,2.3-8.9,11.9-9.8,14c-0.9,2.1-1.4,4.8-1.4,4.8c-4,8.6-13.6,9.8-13.6,9.8l-0.4-7.8
		c0,0-5.2-3-6-4.6l0,0l-0.1-0.3c-0.3-1.5,0-7.1,0-7.1l9-3.7c3.9-5.1,13.5-11,13.5-11l0.4-2.7c-6.9-3.4-5.7-13.6-4.5-14.8
		c1.2-1.2,3.3-1.2,3.3-1.2s2.5,8.2,4.1,12C209.8,138,214.5,144.3,213.8,146.6z"/>
	<path class="st25" d="M186.5,133.5c0,0,1,9.4,4,13.8c0,0-3.8-4.7-4.1-11.9L186.5,133.5z"/>
	<path class="st25" d="M181.6,138.8c0,0,1,7.5,5.6,11.7c0,0-4.1-2.1-5.6-9.1V138.8z"/>
	<linearGradient id="SVGID_15_" gradientUnits="userSpaceOnUse" x1="188.5708" y1="166.9751" x2="205.2797" y2="166.9751">
		<stop  offset="1.598750e-02" style="stop-color:#D1A1D6"/>
		<stop  offset="0.9944" style="stop-color:#BD89C4"/>
	</linearGradient>
	<path class="st26" d="M205.3,158.7c0,0-10.2,9.9-16.7,8.8l0.4,7.8c0,0,10.7-0.9,14.2-12.2C203.2,163.1,204.4,159.8,205.3,158.7z"/>
</g>
<g>
	<linearGradient id="SVGID_16_" gradientUnits="userSpaceOnUse" x1="393.2207" y1="207.6372" x2="393.2207" y2="136.5725">
		<stop  offset="1.598750e-02" style="stop-color:#FFC2A9"/>
		<stop  offset="1" style="stop-color:#FF9595"/>
	</linearGradient>
	<path class="st27" d="M420.9,172.1c0,0-9.4,17.1-20.3,22.4h-3.7l-8.6,13.1c0,0-5.6-3.5-6-15c0,0,2-2,2.4-4.3c0,0-3.1-2.4-3.9-4.2
		c-0.8-1.8-1.1-7.1-1.7-9.3c-0.6-2.2-5.6-6.8-6.8-7.4c-1.1-0.6-6.2-0.9-6.2-0.9s-0.7-1.8,0-2.7c0.7-0.9,8.7-4,13-1
		c0,0,0.3,2.3,0.8,3.5c0.5,1.2,4.3,5.4,4.9,5.4c0.6,0,3.2-2.1,4.3-3.8c1.1-1.6,6.8-14,8.2-18.2c0,0,0-0.1,0-0.1c0-0.1,0-0.1,0.1-0.2
		c0,0,0-0.1,0-0.1c0,0,0,0,0,0c1.1-3.6,7.3-10.6,10.6-12.5c0,0,1.4-0.4,2.2,1.4c0,0-2.7,7.6-5.5,12.1c-0.5,0.8-1,1.7-1.5,2.6
		c0,0,0,0,0,0c-2.4,4.4-5.1,10.1-5.4,10.9l0,0.1l1.5,0.8l4-3.8l4.1-3.9l9.5,10l-0.9,1.2l-3,3.8l1.5,0.3l3.5-3.8L420.9,172.1z"/>
	<linearGradient id="SVGID_17_" gradientUnits="userSpaceOnUse" x1="401.6163" y1="184.8687" x2="401.6163" y2="149.5628">
		<stop  offset="0" style="stop-color:#FFEADB"/>
		<stop  offset="0.9944" style="stop-color:#C27CB6"/>
	</linearGradient>
	<path class="st28" d="M418.7,175.8l-3,4.4c0,0-16.4-12.7-20-13.7s-4.9-0.4-4.9-0.4l-3.7,4.7c0,0,6.8,6,7.4,14.1
		c0,0-2.3-10.2-9.9-13.3c0.6,0,3.2-2.1,4.3-3.8c1.1-1.6,6.8-14,8.2-18.2c-0.2,0.7-0.4,2.1,0.2,3.2c0.8,1.5,5.6,0.1,5.9,0
		c0,0,0,0,0,0l-5.5,10.9l0,0.1l1.5,0.8l4-3.8l-2,4.7l14.7,2.6l-3,3.8l1.5,0.3L418.7,175.8z"/>
	<linearGradient id="SVGID_18_" gradientUnits="userSpaceOnUse" x1="408.5814" y1="172.6826" x2="408.5814" y2="156.8557">
		<stop  offset="0" style="stop-color:#FFB0B0"/>
		<stop  offset="0.984" style="stop-color:#FFC2A9"/>
	</linearGradient>
	<path class="st29" d="M407.2,156.9c0,0,2.9-0.4,4.7,3.3l-0.4,1.2c0,0,2.8,0.5,5.5,5.1c0,0-2.4,4.3-8.3,6.3c0,0-2.7-0.8-3.2-3.1
		l0.5-1.5l-2.1,1.6c0,0-2.6,0.8-3.7-3L407.2,156.9z"/>
	<linearGradient id="SVGID_19_" gradientUnits="userSpaceOnUse" x1="417.7611" y1="175.1199" x2="417.7611" y2="166.4407">
		<stop  offset="0" style="stop-color:#FFB0B0"/>
		<stop  offset="0.984" style="stop-color:#FFC2A9"/>
	</linearGradient>
	<path class="st30" d="M421.7,171c0,0,0.6-2.7-2.3-4.5l-5.6,6.2c0,0,0.2,2,2.6,2.4C416.4,175.1,420.2,173.8,421.7,171z"/>
	<linearGradient id="SVGID_20_" gradientUnits="userSpaceOnUse" x1="380.64" y1="192.4185" x2="396.7822" y2="192.4185">
		<stop  offset="1.598750e-02" style="stop-color:#D1A1D6"/>
		<stop  offset="0.9944" style="stop-color:#BD89C4"/>
	</linearGradient>
	<path class="st31" d="M380.6,184c0,0,6.5,7.3,16.1,10.5l-4.1,6.3l-8.6-11l0.6-1.6C384.6,188.2,381.1,185.7,380.6,184z"/>
	<path class="st25" d="M411.5,161.3c0,0-2.7,4.5-5.5,6.8l-0.5,1.5c0,0,5.3-3.6,7.3-7.7C412.8,161.9,412.1,161.4,411.5,161.3z"/>
</g>
<path class="st16" d="M391.8,209.6c-0.8,1.3-5,4-6.1,5.1c-1.1,1.1,0,4.6,0,4.6c-17.5,18.6-35.7,27.8-37.5,28.7
	c-0.1,0-0.2,0.1-0.2,0.1c-1.4,0.2-8.4-1.8-15.3-15.7c-6.3-12.6-8.1-21-8.4-22.5l0-0.2l1.5-2.1L328,182l1.6,5.2
	c6.1-7.3,11.8-18.5,11.8-18.5l0.3,0.8v0c1,4,3.1,19.1,5.1,24.5c1.2,3.4,3.2,5.2,4.6,6.2l0,0l0,0c-5.6,5.1-8.3,12.4-9.7,18.2
	c-1.3,5.3-1.3,9.4-1.3,9.4s1.5-7.2,6.4-16c1.8-3.2,4.3-6,6.9-8.3c1.9-1.8,3.8-3.2,5.4-4.3c1.3,0.8,2.5,2.1,3.6,1.6
	c-7.3,11-7.2,32.8-0.3,28.7c6.9-4.2,8.5-13,8.5-13c-1.6-10.8-1.1-22.9,0.2-25.2c1.6,0.1,6.1,3.2,6.4,3.2
	c-0.4,12.7,5.5,21.1,5.5,21.1l3.9-6.1c-5.7-9.6-5.3-19-5.3-19c0.2-0.1,1.6,0.9,1.6,0.9l-1,1.2c1.5,8.6,6.4,14.3,6.4,14.3l3.3-4.8
	C391.8,202.1,392.6,208.3,391.8,209.6z"/>
<path class="st16" d="M316.1,288.8v3.7l-0.1,0.1l-0.2,0.2l-0.2,0.1c-1.7,1.3-8.9,5.7-31.3,6.9c-26.6,1.4-44.3-7.1-44.3-7.1l1.3-3.7
	c0,0-1.2-1.1-1.3-1.6c-0.1-0.5,1-1.8,1-1.8s-2.7-1.4-2.7-3.2c0-1.6,4.4-6.3,5.1-10.6c0.1-0.5,0.1-0.9,0.1-1.4
	c-0.2-4.7-4.2-8.9-4.8-11.5c0,0,0,0,0,0c-0.5-2.7,7-9.3,7-9.3c-6.4-20.3-7.7-47.6-7.7-47.6l-1.2-1.4c0,0-7.7,17.5-14.6,26
	c-7,8.6-17.1,15.9-18.9,15.5c-4.1,0-8.7-7.1-12.8-15.9c-4.2-8.8-4.4-34.1-4.6-35.6c-0.2-1.6-2.5-4.7-2.7-6
	c4.5,7.7,11.6,5.4,11.6,5.4c-5.1,0.1-7.8-9.5-7.8-9.5l0-0.1l0-0.1l-2.5-6.6c0.3,0.3,6.2,6.9,11.9,2.8c5.8-4.2,8.8-12.2,8.8-12.2
	v10.3c0,0,0.3,1.6,0.9,1.6c-0.3,4.8-1.4,10.6-2.6,16.3c-2.6,12.4-6.3,24.3-6.3,24.3s9.8-5.3,13.3-18.9c1.6-6.5,1.9-12.1,1.8-16.2
	c-0.1-3.5-0.6-5.9-0.8-6.8c0-0.1,0-0.1,0-0.2c0,0,0-0.1,0-0.1c0,0,0,0,0,0l1,2l1.8,4.5c2.1,17.4-2.2,43.6-2.2,43.6
	c6.3-7.8,7.6-25.2,7.3-29.4c-0.1-2-0.3-4.5-0.4-6.5c-0.1-2.2-0.2-3.9-0.2-3.9l12.9,7.7l-2.4-7.5l9.4,7.5c0,0,8.4,10.2,17.1,11.4
	c8.7,1.2,40.5,0.5,40.5,0.5s-27.7,1.8-35.8,4.2s-9.6,5.1-9.6,5.1c5.8,29.7,38.2,39.8,39.2,40.1c-29.3-4.4-43-29.4-43-29.4
	s-0.5,14,1.8,19.4s15.6,18.4,32.7,21.2c1.4,0.2,2.9,0.4,4.3,0.4c14.4,0.7,26.4-6.7,27.6-7.5c0.1,0,0.1-0.1,0.1-0.1s0,0,0,0
	c-0.5,0.7-6.4,9-30.3,9.9c-1.4,0.1-2.9,0-4.2,0c0,0,0,0,0,0c-22.2-0.9-33.4-15.7-33.4-15.7s-8.2,4.4-3,10.9c0.1,0.1,0.1,0.1,0.2,0.2
	c1.5,1.8,4.9,4,9,6.2c0.1,0.1,0.2,0.1,0.3,0.2c4.9,2.7,10.6,5.4,15,7.7c0,0,0,0,0.1,0c2.7,1.4,4.9,2.6,6.1,3.5c0,0,0,0,0,0
	c1.2,0.9,1.5,1.5,0.3,1.6c-6.2,0.7-29.6-4.4-30.6-3c-1,1.4,1.2,5.1,1.2,5.1c21.5,10.7,67.5,5.4,68.9,5.2c-38.5,9.9-70-2.6-70-2.6
	l1,3.7c0,0,17.1,5.9,37.4,6.4c20.2,0.5,32.8-4.7,32.8-4.7L316.1,288.8z"/>
<linearGradient id="SVGID_21_" gradientUnits="userSpaceOnUse" x1="300.3291" y1="209.8412" x2="325.7595" y2="209.8412">
	<stop  offset="0" style="stop-color:#CCEDFF"/>
	<stop  offset="1" style="stop-color:#755CBB"/>
</linearGradient>
<path class="st32" d="M300.3,204.1c0,0,15.3,0.8,25.4,3.5l-5.2,7.9C320.5,215.6,312.7,208.6,300.3,204.1z"/>
<linearGradient id="SVGID_22_" gradientUnits="userSpaceOnUse" x1="277.2637" y1="254.4714" x2="314.6367" y2="254.4714">
	<stop  offset="0" style="stop-color:#CCEDFF"/>
	<stop  offset="1" style="stop-color:#755CBB"/>
</linearGradient>
<path class="st33" d="M314.6,246.3c0,0-9.6,8-18.9,11.7c-9.4,3.7-18.4,4-18.4,4s5.4,1.6,18.7-0.5c13.3-2.1,17.8-9.3,17.8-9.3
	L314.6,246.3z"/>
<linearGradient id="SVGID_23_" gradientUnits="userSpaceOnUse" x1="278.9944" y1="271.3702" x2="318.923" y2="271.3702">
	<stop  offset="0" style="stop-color:#CCEDFF"/>
	<stop  offset="1" style="stop-color:#755CBB"/>
</linearGradient>
<path class="st34" d="M318.9,277L318.9,277c-17.7,4.6-40.1-2-39.9-2.8c0.2-0.8,6.1,0.4,20-2.4c13.4-2.7,18.3-7.4,18.5-7.7
	c-0.1,0.8-2,2.6-2.5,4.5C314.7,269.9,317.2,274,318.9,277z"/>
<linearGradient id="SVGID_24_" gradientUnits="userSpaceOnUse" x1="244.631" y1="229.5305" x2="244.631" y2="184.7181">
	<stop  offset="0" style="stop-color:#CCEDFF"/>
	<stop  offset="1" style="stop-color:#755CBB"/>
</linearGradient>
<path class="st35" d="M270.9,206.5c-15.1,1.5-19.2,5.7-19.2,5.7c-4.2,0.5-13.8-10.3-13.8-10.3l-1.2-1.4c0,0-7.7,17.5-14.6,26
	c-0.8,1-1.7,2-2.6,3l1-2.2c0,0,1.6-0.8,2.1-9.3c0.5-8.5-3.6-21.2-3.6-22.9c0-1.7-0.6-10.4-0.6-10.4l12.9,7.7l-2.4-7.5l9.4,7.5
	c0,0,3.7,5.5,13,10.1C260,206.9,269.8,206.6,270.9,206.5z"/>
<linearGradient id="SVGID_25_" gradientUnits="userSpaceOnUse" x1="248.2387" y1="233.2975" x2="248.2387" y2="199.3282">
	<stop  offset="0" style="stop-color:#CCEDFF"/>
	<stop  offset="1" style="stop-color:#755CBB"/>
</linearGradient>
<path class="st36" d="M236.7,200.5l9-1.2c0,0,3.6,2.4,10.8,5.3l-6,8.9c0,0,2.4,12.6,9.2,19.8c0,0-18.2-10.1-20.7-18.6L236.7,200.5z"
	/>
<linearGradient id="SVGID_26_" gradientUnits="userSpaceOnUse" x1="194.5524" y1="189.8735" x2="194.5524" y2="164.2085">
	<stop  offset="0" style="stop-color:#CCEDFF"/>
	<stop  offset="1" style="stop-color:#755CBB"/>
</linearGradient>
<path class="st37" d="M184.2,173.6l2.6,6.8c0,0,2.6,9.1,7.8,9.5c5.2,0.4,10.3-15.3,10.3-15.3v-10.3c0,0-5.5,11.9-11.5,13.2
	C187.4,178.7,184.2,173.6,184.2,173.6z"/>
<linearGradient id="SVGID_27_" gradientUnits="userSpaceOnUse" x1="215.3208" y1="167.2725" x2="225.664" y2="167.2725">
	<stop  offset="0" style="stop-color:#CCEDFF"/>
	<stop  offset="1" style="stop-color:#755CBB"/>
</linearGradient>
<path class="st38" d="M215.3,168.2c0,0,4.6,9.3,10.3,12.1c0,0-6.8-16.5-5.4-26.2C220.3,154.2,217.8,155.7,215.3,168.2z"/>
<linearGradient id="SVGID_28_" gradientUnits="userSpaceOnUse" x1="327.7587" y1="229.5305" x2="327.7587" y2="181.9603">
	<stop  offset="0" style="stop-color:#CCCCFF"/>
	<stop  offset="1" style="stop-color:#755CBB"/>
</linearGradient>
<path class="st39" d="M328,182l1.6,5.2l1.6,42.4c0,0-4.1-8.1-7-19.6l1.5-2.3C325.8,207.6,328.3,191.7,328,182z"/>
<linearGradient id="SVGID_29_" gradientUnits="userSpaceOnUse" x1="381.2404" y1="219.2992" x2="381.2404" y2="194.4411">
	<stop  offset="0" style="stop-color:#CCCCFF"/>
	<stop  offset="1" style="stop-color:#755CBB"/>
</linearGradient>
<path class="st40" d="M377.3,194.4c0,0-0.9,20.8,7.9,22.6l0.4,2.2C385.7,219.3,374.2,218.9,377.3,194.4z"/>
<linearGradient id="SVGID_30_" gradientUnits="userSpaceOnUse" x1="353.0483" y1="218.1885" x2="353.0483" y2="199.1849">
	<stop  offset="0" style="stop-color:#CCCCFF"/>
	<stop  offset="1" style="stop-color:#755CBB"/>
</linearGradient>
<path class="st41" d="M362.5,200.8c0,0-0.3,0.7-3.6-1.6c0,0-11.1,7.9-15.4,19c0,0,6.9-10.2,10.5-11.3c3.7-1.1,4.5,3,4.5,3
	S360.1,204.1,362.5,200.8z"/>
<linearGradient id="SVGID_31_" gradientUnits="userSpaceOnUse" x1="189.1801" y1="191.5118" x2="189.1801" y2="184.4545">
	<stop  offset="0" style="stop-color:#CCEDFF"/>
	<stop  offset="1" style="stop-color:#755CBB"/>
</linearGradient>
<path class="st42" d="M183,184.5c0,0,4.3,7.9,12.3,5.4c0,0-4.8,3.2-9.6,0.6C185.7,190.5,182.7,185.3,183,184.5z"/>
<linearGradient id="SVGID_32_" gradientUnits="userSpaceOnUse" x1="208.032" y1="213.0276" x2="208.032" y2="174.4586">
	<stop  offset="0" style="stop-color:#CCCCFF"/>
	<stop  offset="1" style="stop-color:#755CBB"/>
</linearGradient>
<path class="st43" d="M211.1,174.5c0,0,5.9,22-9.5,38.6c0,0,10-5.1,12.2-17C216.1,184.2,211.1,174.5,211.1,174.5z"/>
<linearGradient id="SVGID_33_" gradientUnits="userSpaceOnUse" x1="307.2605" y1="185.8798" x2="307.2605" y2="156.8557">
	<stop  offset="0" style="stop-color:#CCEDFF"/>
	<stop  offset="1" style="stop-color:#755CBB"/>
</linearGradient>
<path class="st44" d="M316.6,156.9c0,0-0.7,9.9-5.4,17.1c-4.8,7.1-14.2,11.9-14.2,11.9s11.9-4.4,17.3-10.5
	C319.7,169.2,316.6,156.9,316.6,156.9z"/>
<linearGradient id="SVGID_34_" gradientUnits="userSpaceOnUse" x1="269.2365" y1="181.9563" x2="269.2365" y2="141.8976">
	<stop  offset="0" style="stop-color:#CCEDFF"/>
	<stop  offset="1" style="stop-color:#755CBB"/>
</linearGradient>
<path class="st45" d="M256,141.9c0,0,0,8.3,2.7,16.8c2.7,8.5,25.9,23.3,25.9,23.3s-23.9-9.9-28.6-18.9
	C251.3,154.1,256,141.9,256,141.9z"/>
<linearGradient id="SVGID_35_" gradientUnits="userSpaceOnUse" x1="255.7103" y1="189.283" x2="322.6178" y2="189.283">
	<stop  offset="0" style="stop-color:#8642A0"/>
	<stop  offset="1" style="stop-color:#6456C0"/>
</linearGradient>
<path class="st46" d="M255.7,181.5V195c0,0,31.2-0.3,66.1,2.1l0.8-12.2C322.6,184.9,292.2,181.3,255.7,181.5z"/>
<linearGradient id="SVGID_36_" gradientUnits="userSpaceOnUse" x1="261.4792" y1="150.6735" x2="305.0209" y2="150.6735">
	<stop  offset="0" style="stop-color:#CCCCFF"/>
	<stop  offset="1" style="stop-color:#755CBB"/>
</linearGradient>
<path class="st47" d="M305,143.7c-0.7,8.8-3.4,14.9-6.2,19c-3.9,5.6-8.2,7.6-8.2,7.6c-4.2-1.8-7.9-4.1-11.1-6.7
	c-13.4-10.7-17.8-25.6-18.1-26.8c5.7,13.7,14,22,20.3,26.6c5.1,3.8,8.9,5.2,8.9,5.2v-4.4c-1-0.4-2-0.8-2.9-1.3
	c-11.1-5.6-16.9-17.3-19.7-24.8c0,0,0,0,0,0c-1.5-4.1-2.1-7-2.1-7h2l-0.7,1.4l0,0c0.3,1.4,0.7,2.8,1.1,4.1c0,0,0,0.1,0,0.1
	c6.2,19.6,22.2,25.9,22.2,25.9c11.1-8.2,10.9-21.2,10.9-21.2v-1.8l2.1,0.6L305,143.7z"/>
<linearGradient id="SVGID_37_" gradientUnits="userSpaceOnUse" x1="373.4125" y1="216.465" x2="373.4125" y2="191.2667">
	<stop  offset="0" style="stop-color:#CCCCFF"/>
	<stop  offset="1" style="stop-color:#755CBB"/>
</linearGradient>
<path class="st48" d="M370.9,191.3c0,0-3,9.9-0.2,25.2c0,0,1.4-19.4,2.5-21.1c1.1-1.7,4.1-0.9,4.1-0.9S372.6,191.8,370.9,191.3z"/>
<linearGradient id="SVGID_38_" gradientUnits="userSpaceOnUse" x1="337.7948" y1="244.8915" x2="337.7948" y2="168.5853">
	<stop  offset="0" style="stop-color:#CCCCFF"/>
	<stop  offset="1" style="stop-color:#755CBB"/>
</linearGradient>
<path class="st49" d="M341.6,244.9c-2.6-2.3-5.8-6.2-9-12.5c-6.3-12.6-8.1-21-8.4-22.5l1.5-2.3l2-19.4l1.9-1.1
	c0,0,6.7-7.4,11.8-18.5c0.1,0.2,0.2,0.4,0.3,0.8v0c1,4,3.1,19.1,5.1,24.5c1.2,3.4,3.2,5.2,4.6,6.2c0,0-11.6,17.2-12.2,29.5
	C338.7,240.7,341.2,244.3,341.6,244.9z"/>
<linearGradient id="SVGID_39_" gradientUnits="userSpaceOnUse" x1="255.7564" y1="280.7338" x2="255.7564" y2="258.8595">
	<stop  offset="0" style="stop-color:#CCCCFF"/>
	<stop  offset="1" style="stop-color:#755CBB"/>
</linearGradient>
<path class="st50" d="M272.8,280.7c0,0-20.9-3.4-29.4-8.9c0,0,0,0,0,0c0.1-0.5,0.1-0.9,0.1-1.4c-0.2-4.7-4.2-8.9-4.8-11.5
	c0.1,0.3,0.7,1.7,3.7,4.2c1.9,1.6,4.7,3.7,9,6.2c0.1,0.1,0.2,0.1,0.3,0.2c6,3.6,11.2,6,15,7.7c0,0,0,0,0.1,0
	C270,278.8,272.2,279.8,272.8,280.7C272.8,280.7,272.8,280.7,272.8,280.7z"/>
<linearGradient id="SVGID_40_" gradientUnits="userSpaceOnUse" x1="298.2487" y1="274.725" x2="298.2487" y2="264.1021">
	<stop  offset="0" style="stop-color:#CCCCFF"/>
	<stop  offset="1" style="stop-color:#755CBB"/>
</linearGradient>
<path class="st51" d="M317.5,264.1c-0.1,0.8-2,2.6-2.5,4.5c0,0-7.7,8.1-36,5.6c0.2-0.8,6.1,0.4,20-2.4
	C312.4,269.2,317.2,264.4,317.5,264.1z"/>
<path class="st52" d="M322.2,154.3l-18.1,5.9l-5.3,2.5l0,0l-3.5,0l-4.7,0l-2.9,0.2l-1.5,0.1l-4.4,0.3l-2.2,0.2l-21.7-7.9l-3.9-1.4
	l-17.9-6.5c0.5-0.2,1.1-0.4,1.6-0.6c12-4.8,23.8-10.5,23.8-10.5l4.5-5.6h2c1.8-3.9,3-7.6,3.8-10.5l1.2-5.4c0.1-0.5,0.1-0.8,0.1-0.8
	l6.4,3.4l21.6,17.3c0,1.2,0,2.2,0.1,3.1l0.3,2.2c0.1-0.4,0.1-0.7,0.1-0.7l2.1,0.6l1.4,3.4c0,0,2.4,3.7,12,7.9
	C318.6,152.4,320.4,153.3,322.2,154.3z"/>
<linearGradient id="SVGID_41_" gradientUnits="userSpaceOnUse" x1="297.7804" y1="138.185" x2="297.7804" y2="65.5148">
	<stop  offset="1.598750e-02" style="stop-color:#FFC2A9"/>
	<stop  offset="1" style="stop-color:#FF9595"/>
</linearGradient>
<path class="st53" d="M308.4,137.8c0,0-8.5,1.9-17.8-2.6S273.5,117.3,273,114c-0.5-3.3,3.6-12,3.6-18.8s-3.3-18.4,2.3-24.7
	c5.6-6.3,31.3-7.2,39.6,0.8c0,0,2.6,6.5,2.6,10.1c0,0.9-0.2,2.2-0.4,3.7c-0.1,0.6-0.2,1.1-0.3,1.8c-0.7,4.4-1.8,9.8-1.3,12.2
	c0.2,0.8,0.4,1.6,0.7,2.3v0c1,2.4,2.6,4.3,2.8,6.3C323,110.4,319.4,129.5,308.4,137.8z"/>
<linearGradient id="SVGID_42_" gradientUnits="userSpaceOnUse" x1="270.6897" y1="108.861" x2="270.6897" y2="87.4361">
	<stop  offset="1.598750e-02" style="stop-color:#FFC2A9"/>
	<stop  offset="1" style="stop-color:#FF9595"/>
</linearGradient>
<path class="st54" d="M276.5,93.3c0,0-2.3-5.8-8.1-5.9c0,0-3.4,1.3-3.9,3.9c0,0,1.2,9.4,2.7,13.7s6.7,3.7,6.7,3.7
	S278.3,101.9,276.5,93.3z"/>
<linearGradient id="SVGID_43_" gradientUnits="userSpaceOnUse" x1="307.881" y1="116.9632" x2="308.7793" y2="112.286">
	<stop  offset="0" style="stop-color:#E1616A"/>
	<stop  offset="1" style="stop-color:#FF8883"/>
</linearGradient>
<path class="st55" d="M298.8,112.4c0,0,1.9-0.2,2.8,0.5c0.8,0.6,3.9,3.6,7.7,4.4c3.8,0.8,6.4-2.5,7.2-2.6c0.8-0.2,1.7,1,1.7,1
	s-0.4-1.3-2.3-1.9c0,0-0.8,3.1-6.4,2c-5.6-1.1-7.9-3.5-7.9-3.5l-0.3-0.5C301.2,111.6,299.7,112,298.8,112.4z"/>
<linearGradient id="SVGID_44_" gradientUnits="userSpaceOnUse" x1="299.7721" y1="113.3845" x2="299.7721" y2="66.5703">
	<stop  offset="0" style="stop-color:#FFEADB"/>
	<stop  offset="0.9944" style="stop-color:#C27CB6"/>
</linearGradient>
<path class="st56" d="M290.6,83.6l0.1-0.6c0,0,5.5-9.7,16.5-10s13.4,6.6,13.4,6.6l2-3.1l-4.6-9.4l-32.2-0.5l-7.8,6.3l-1,15.5
	l3.5,20.5l8.5,4.5l2.4-2.1c-0.9-6.9-6-13.1-6-13.1l3.7-2.6c0,0,9.5,4.6,15.1,3.2c0,0,4.1-12.1,3.9-21.1
	C308,77.7,293.9,79.8,290.6,83.6z"/>
<path class="st57" d="M290.1,84.3c0,0,0.5-3.5,6.5-4.9c6.6-1.6,11.9-2.9,11.9-2.9s-1.2,3.8-3.4,5.3c0,0-7-0.3-10.5,0.5
	C291.1,83.1,290.1,84.3,290.1,84.3z"/>
<path class="st57" d="M320.6,79.6c0,0-3.3,2.6-5.6,8.7c0,0,2.2-2.9,4.2-2.8c1.4,0,1.2,1.4,1.2,1.4S321.7,83.2,320.6,79.6z"/>
<linearGradient id="SVGID_45_" gradientUnits="userSpaceOnUse" x1="297.4905" y1="94.213" x2="297.4905" y2="84.9394">
	<stop  offset="0" style="stop-color:#CF6074"/>
	<stop  offset="1" style="stop-color:#F37270"/>
</linearGradient>
<path class="st58" d="M292.3,94.2c0,0,0.4-7.4,7.6-9.3c0,0,2.6,3.3,2.9,7.1C302.7,92.1,298.9,91.4,292.3,94.2z"/>
<linearGradient id="SVGID_46_" gradientUnits="userSpaceOnUse" x1="315.9878" y1="97.1557" x2="315.9878" y2="89.0858">
	<stop  offset="0" style="stop-color:#CF6074"/>
	<stop  offset="1" style="stop-color:#FF817F"/>
</linearGradient>
<path class="st59" d="M313,97.2c0,0,0.6-5.9,4-8.1c0,0,2.3,1.7,2.1,6.7C319,95.7,317,95,313,97.2z"/>
<path class="st60" d="M292.3,94.2c0,0,2.3,2.9,8.9,3.4c0,0,1.3-1.9,1.1-5.6C302.3,92,296.3,91.4,292.3,94.2z"/>
<path class="st60" d="M313,97.2V98c0,0,1,2.1,4.6,2.5c0,0,1.2-1.8,1.3-4.8C318.9,95.7,316.6,95.1,313,97.2z"/>
<path class="st61" d="M299.3,91.9c0,0-1.7,2-1.5,5.2c0,0,2.2,0.5,3.4,0.6c0,0,1.4-2,1.1-5.6C302.3,92,300.4,91.6,299.3,91.9z"/>
<path class="st61" d="M316.4,95.8c0,0-0.9,1-1.1,4.1c0,0,1.3,0.6,2.3,0.6c0,0,1.3-1.9,1.3-4.8C318.9,95.7,317.9,95.4,316.4,95.8z"/>
<path class="st57" d="M298.8,97.3c0,0-0.6-4,1.7-5.5l1.9,0.2c0,0,0.6,3.2-1.1,5.6C301.2,97.7,299.3,97.4,298.8,97.3z"/>
<path class="st57" d="M317.2,95.6c0,0-0.8,1.8-1.2,4.5c0,0,0.7,0.3,1.6,0.3c0,0,1.3-1.6,1.3-4.8C318.9,95.7,317.9,95.5,317.2,95.6z"
	/>
<path class="st62" d="M292.3,94.2c0,0,4.4-2.5,11.8-1.1l-1.4-1C302.7,92.1,297.4,90.4,292.3,94.2z"/>
<path class="st62" d="M313,97.2c0,0,3.5-1.9,7.6-0.9l-1.7-1.2C318.9,95,316.1,94.6,313,97.2z"/>
<path class="st9" d="M297,94.2c0,0,1.2-0.3,2.3,0.8C299.3,95,297.8,95.5,297,94.2z"/>
<path class="st9" d="M314.6,97.7c0,0,1.9-0.4,2.5,0.5C317.1,98.1,316.1,98.8,314.6,97.7z"/>
<path class="st63" d="M292.7,94.6c0,0,3.4,3.4,8.8,4.2l0.1-2l-0.5,0.8C301.2,97.7,296,97.4,292.7,94.6z"/>
<path class="st63" d="M313,98c0,0,0.6,2.2,5,3.2l-0.1-1.1l-0.2,0.4C317.6,100.5,314.5,100.1,313,98z"/>
<path class="st64" d="M304.1,106.7c0,0,1.6-0.4,4.7,0c3,0.4,6.4,1.2,8.3,0c0,0-2.5,2.5-4.6,2.9c-2.1,0.4-5.4-1.5-5.4-1.5l-1.4,0
	C305.6,108.1,304.5,107.5,304.1,106.7z"/>
<path class="st65" d="M305.8,108.1c0,0,0.7-0.5,1.4-0.4s1.3,1,1.3,1S307.1,108,305.8,108.1z"/>
<path class="st66" d="M317.1,106.7c0.8-0.8-3.3-8.1-5.3-8.3c-2-0.3-3.8,8.2-3.8,8.2s2.7,0.4,5.4,0.7
	C316,107.6,317.1,106.7,317.1,106.7z"/>
<linearGradient id="SVGID_47_" gradientUnits="userSpaceOnUse" x1="316.7473" y1="101.8514" x2="316.7473" y2="83.6919">
	<stop  offset="0" style="stop-color:#FFEADB"/>
	<stop  offset="0.9944" style="stop-color:#C27CB6"/>
</linearGradient>
<path class="st67" d="M320,83.7c-1.1-0.1-5,4.6-5,4.6s-2.5,7.7-2,10c0.5,2.3,6.6,3.5,6.6,3.5l0.3-0.4v0c-0.3-0.7-0.6-1.5-0.7-2.3
	c-0.5-2.4,0.5-7.8,1.3-12.2c0,0,0.2-0.9,0.3-1.8C320.6,84.4,320.5,83.8,320,83.7z"/>
<path class="st16" d="M319.8,115.1c-1.3-2.6-0.5-4-11.4-5.4c-15.4-2-16.7,2.7-19.3,2c-0.1,0-0.2-0.1-0.3-0.1
	c-2.8-1.1-9.5-7.7-9.7-16.5c-0.2-9.2,6-15.7,6-15.7c-2.2-1.9-3.1-7.3-0.7-9.6c2.4-2.3,6.5-1.8,16.6-0.7c10.1,1.1,10.1,0.5,10.1,0.5
	c3.2,0.8,5,3.8,5.6,4.8c0.1,0.2,0.2,0.3,0.2,0.3l1.3-1.2c3.4,4.9,2.8,10.3,2.8,10.3s5.5-11.2,4.9-12.8c-1.1-2.9-4.3-7.2-4.5-7.5l0,0
	c0,0-0.9-8.6-3.6-8.6s-14.1,2.6-14.1,2.6c1.3-2.9,1.1-6.3,1.1-6.3s0,0,0,0c-3.7,3.3-7.4,3.7-12.5,6.1c-2.6,1.2-3.8,2.3-4.8,3.5
	l-0.3,0.4l-0.4,0.4c-0.4,0.5-0.7,0.9-1.2,1.4c0,0,0,0-0.1,0.1c0,0,0,0,0,0c-0.4,0.5-0.9,0.9-1.5,1.4c-3.4,2.8-10.8,4.6-11.7,7.5
	c-0.9,2.9,1.1,6.9,2.2,11c1.1,4.1,0.6,7.7,0.6,7.7s3.5,4.6,2.4,11.3c-1,6-3.3,7-3.3,7c-1.6,3.3-0.8,6.4-0.8,6.4
	c3.3,13.1,16.9,20.9,16.9,20.9c12.1,4.5,20.1,2.6,20.1,2.6s0,0,0,0c8.8-5.8,11.8-24.8,12-25.7C321.8,113.2,320.2,115.8,319.8,115.1z
	 M314.4,127.2c-2.1-0.4-2.6-5.8-3.3-6.5c-0.7-0.7-4.6-0.4-4.6-0.4s-3.6,4-5,4.2c-1.4,0.1-9-3-7.4-7.6c1.6-4.6,7.4-5.2,7.4-5.2
	s3,2.5,7.4,2.8c4.5,0.3,6.1-0.5,6.6-0.8c0.5-0.2,3.4,1.1,3.3,5.1C318.8,121.6,316.5,127.6,314.4,127.2z"/>
<path class="st68" d="M313.8,100c0,0,3.8,4.8,3.5,6.6c-0.4,2-4.9,3-4.9,3s3.6-1.2,4.3-3C316.8,106.5,315.8,102.9,313.8,100z"/>
<linearGradient id="SVGID_48_" gradientUnits="userSpaceOnUse" x1="321.9035" y1="83.6008" x2="321.9035" y2="63.2701">
	<stop  offset="0" style="stop-color:#FFEADB"/>
	<stop  offset="0.9944" style="stop-color:#8860C7"/>
</linearGradient>
<path class="st69" d="M320.8,83.6c0,0,0.6-5.3-2.8-10.3c2.7-4.9,3.1-10.1,3.1-10.1l0,0c0.9,2.3,1.4,6.7,1.4,6.7l3.1,0.8
	C326.3,72.4,320.8,83.6,320.8,83.6z"/>
<path class="st16" d="M316.6,74.2c-0.5-1-2.4-4-5.6-4.8c0,0,0,0.6-10.1-0.5c-10.1-1.1-14.2-1.6-16.6,0.7c-2.4,2.3-1.5,7.8,0.7,9.6
	c0,0-6.2,6.5-6,15.7c0.2,8.8,6.8,15.4,9.7,16.5l-0.1,1c0,0,0.5,20.2,5.4,21.8c4.9,1.6,15.1,0.8,16.1,1.7c0.9,0.9-0.1,2.5-0.2,2.6
	c0,0,0,0,0,0s-8,2-20.1-2.6c0,0-13.6-7.8-16.9-20.9c0,0-0.8-3.1,0.8-6.4c0,0,2.3-1,3.3-7c1.2-6.7-2.4-11.3-2.4-11.3s0.5-3.6-0.6-7.7
	c-1.1-4.1-3.1-8.1-2.2-11c5.7,0.9,9.5-2.1,9.5-2.1s1-1.4,5.4-2.1c4.4-0.7,22.2,1.1,22.2,1.1s-1.8-1.5-5.5-2.5
	c-3.5-0.9-15.6,0.2-16.9,0.3c1.4-0.2,15.1-2.6,16.7-2.1c1.7,0.5,7.6,3.2,7.6,3.2c-0.5-2.7-5.8-9.3-5.8-9.3s-7.5,0.1-12.4,1.2
	c-4.4,0.9-6.8,2.9-7.2,3.3l1.2-1.4l0.4-0.4l0.3-0.4l1.7-0.3l8.6-3.5c2.9-1.5,6.6-5.4,7-5.8c0,0,0,0,0,0s0.2,3.4-1.1,6.3
	c7.3-0.9,9.7-0.4,9.7-0.4C316.5,61.5,316.6,74.2,316.6,74.2z"/>
<linearGradient id="SVGID_49_" gradientUnits="userSpaceOnUse" x1="300.108" y1="139.078" x2="300.108" y2="135.2916">
	<stop  offset="0" style="stop-color:#776D7E"/>
	<stop  offset="1" style="stop-color:#9D68C2"/>
</linearGradient>
<path class="st70" d="M289.9,136.1c0,0,4.5-1.1,11.2-0.8c6.7,0.3,10.6,0.3,8.9,3.3C310,138.7,301.5,140.6,289.9,136.1z"/>
<linearGradient id="SVGID_50_" gradientUnits="userSpaceOnUse" x1="311.2169" y1="57.2932" x2="311.2169" y2="54.4801">
	<stop  offset="0" style="stop-color:#1F77D1"/>
	<stop  offset="1" style="stop-color:#0686C9"/>
</linearGradient>
<path class="st71" d="M313.2,56.9c0,0,4.1-1.6,5.7-1.3c0,0-0.6-0.9-1.3-1c-0.7-0.2-14.1,2.8-14.1,2.8S311.9,56.3,313.2,56.9z"/>
<linearGradient id="SVGID_51_" gradientUnits="userSpaceOnUse" x1="293.2964" y1="66.555" x2="293.2964" y2="58.2377">
	<stop  offset="0" style="stop-color:#1F77D1"/>
	<stop  offset="1" style="stop-color:#0686C9"/>
</linearGradient>
<path class="st72" d="M304.9,58.4c0,0-0.3,4.4-1.7,6.1l-16.7,2.1l-4.9-0.9c0,0,1.9-0.8,4-3.2C287.7,60,298.6,57.7,304.9,58.4z"/>
<linearGradient id="SVGID_52_" gradientUnits="userSpaceOnUse" x1="323.4362" y1="70.7717" x2="323.4362" y2="63.2701">
	<stop  offset="0" style="stop-color:#1F77D1"/>
	<stop  offset="1" style="stop-color:#0686C9"/>
</linearGradient>
<path class="st73" d="M321.2,63.3c0,0,1.4,4.4,1.5,6.7l3.1,0.8C325.7,70.8,324.8,67.5,321.2,63.3z"/>
<linearGradient id="SVGID_53_" gradientUnits="userSpaceOnUse" x1="273.8098" y1="103.7831" x2="264.2132" y2="92.026">
	<stop  offset="0" style="stop-color:#FFEADB"/>
	<stop  offset="0.9944" style="stop-color:#B060F4"/>
</linearGradient>
<path class="st74" d="M275.8,101.2c0,0-1.2-5.6-4-8.4c-2.9-2.8-6.1-1.9-6.1-1.9s0.9,10.4,1.8,13c0.9,2.5,2.4,3.2,2.4,3.2
	s-2-1.8-2.3-5.2c-0.3-3.4-0.4-8.3,0.4-8.9c0.8-0.6,3.8,1.7,3.8,1.7s-1,1.2-1.5,4.3c-0.6,3.1,1.6,5.3,2.4,5.3c0.8,0,0-3.6,0.1-4.6
	C272.8,98.6,274.6,98.8,275.8,101.2z"/>
<linearGradient id="SVGID_54_" gradientUnits="userSpaceOnUse" x1="274.8145" y1="102.2687" x2="270.0926" y2="96.4839">
	<stop  offset="0" style="stop-color:#FFEADB"/>
	<stop  offset="0.9944" style="stop-color:#B060F4"/>
</linearGradient>
<path class="st75" d="M272.9,94.2c0,0-3.1,2.1-2.8,6.3c0.3,4.2,2.8,4,2.8,3.2c0-0.9-0.5-3.2-0.2-4.5c0.2-1.3,2.3-0.7,2.3-0.7
	S273.6,95.1,272.9,94.2z"/>
<path class="st16" d="M321.9,113c0,0-3.9,17.8-12,25.7C310,138.7,319.2,135,321.9,113z"/>
<path class="st76" d="M317.6,54.5c0,0,2.1,1.6,2.4,7.1c0.4,5.6-2,11.7-2,11.7s3.1-4.6,3.4-9.7C321.7,58.6,319.2,55.1,317.6,54.5z"/>
<linearGradient id="SVGID_55_" gradientUnits="userSpaceOnUse" x1="292.7407" y1="67.2989" x2="308.9929" y2="67.2989">
	<stop  offset="0" style="stop-color:#1F77D1"/>
	<stop  offset="1" style="stop-color:#0686C9"/>
</linearGradient>
<path class="st77" d="M292.7,66.1c0,0,4.8,1.6,10,2.1c5.2,0.5,6.3,0.6,6.3,0.6s-2.1-2-6.6-2.6C298,65.5,292.7,66.1,292.7,66.1z"/>
<path class="st16" d="M315.7,113.4c0,0,2.3,0,3.2,2.9c0.7,2.3,0.9,4.2,0.9,4.2l0.8-3.1c0,0-1.1-4-2.1-4.9c-0.8-0.6-2.1-1.3-2.8-1.1
	L315.7,113.4z"/>
<path class="st16" d="M309.6,110.5l0.4,3.4c0,0,2.8,0.2,4.6-0.5l0.3-2.1C314.9,111.3,311.4,110.4,309.6,110.5z"/>
<path class="st16" d="M322.2,154.3c0,0,16.2,11.8,18.3,15.9c2.1,4.1,3,16.9,5.8,22.4c0,0-1.9-9-3.3-16.1c-1.4-7.1-1-7.2-1.8-8.9
	C340.5,165.8,328.4,157.4,322.2,154.3z"/>
<path class="st16" d="M319.3,220.3c0,0-7.8,33.5-7.5,35.7c0.4,2.3,5.4,6.9,5.6,8.1c0,0-3.9,5.2-3.7,6.3c0.2,1.1,6.8,8.4,6.6,10.6
	c-0.1,0.7-4.3,7.7-4.3,7.7s4.8-6.9,5.1-8c0.2-1.1-5.9-10.4-6.1-11.3c-0.5-2.4,3.1-4.2,3.2-5.8c0.1-1.6-4.8-5.5-4.8-8.1
	C313.4,252.8,319.3,220.3,319.3,220.3z"/>
<path class="st66" d="M213.8,146.6c0,0-4.4-0.9-6.2-4.7c-1.8-3.8-0.6-9.3-0.6-9.3s3.4,6.6,5.1,8.8
	C213.8,143.6,214.3,146.2,213.8,146.6z"/>
<g>
	<path class="st78" d="M348.7,126.7l3,86.4c0.1,3.4,2.9,6.1,6.4,6.1h148.8c3.5,0,6.3-2.8,6.4-6.2l2.1-87.4c0.1-3.6-2.8-6.5-6.4-6.5
		l-154,1C351.4,120.1,348.5,123.1,348.7,126.7z"/>
	<g>
		<path class="st79" d="M506.9,219.5H358.1c-3.6,0-6.5-2.8-6.6-6.4l-3-86.4c-0.1-1.8,0.6-3.5,1.8-4.8c1.2-1.3,2.9-2,4.7-2l154-1
			c1.8,0,3.5,0.7,4.8,2c1.3,1.3,1.9,3,1.9,4.8l-2.1,87.4C513.4,216.7,510.5,219.5,506.9,219.5z M509,119.3
			C509,119.3,509,119.3,509,119.3l-154,1c-1.7,0-3.2,0.7-4.4,1.9c-1.2,1.2-1.8,2.8-1.7,4.5l3,86.4c0.1,3.3,2.8,5.9,6.1,5.9h148.8
			c3.3,0,6.1-2.7,6.1-6l2.1-87.4c0-1.7-0.6-3.3-1.8-4.4C512.2,120,510.6,119.3,509,119.3z"/>
	</g>
	<linearGradient id="SVGID_56_" gradientUnits="userSpaceOnUse" x1="348.794" y1="125.1341" x2="515.4483" y2="125.1341">
		<stop  offset="0" style="stop-color:#9D68C2"/>
		<stop  offset="1" style="stop-color:#AEC2FF"/>
	</linearGradient>
	<path class="st80" d="M348.9,131.1h166.3l0.3-4.6c0.2-4-3-7.4-7-7.4l-153.9,1.2c-3.2,0-5.8,2.7-5.7,5.9L348.9,131.1z"/>
	<linearGradient id="SVGID_57_" gradientUnits="userSpaceOnUse" x1="382.6956" y1="188.0779" x2="382.6956" y2="137.8137">
		<stop  offset="0" style="stop-color:#CCEDFF"/>
		<stop  offset="1" style="stop-color:#9D68C2"/>
	</linearGradient>
	<polygon class="st81" points="357.2,138.1 357.2,188.1 408.1,188.1 408.1,137.8 	"/>
	<linearGradient id="SVGID_58_" gradientUnits="userSpaceOnUse" x1="468.4037" y1="163.5717" x2="468.4037" y2="141.4314">
		<stop  offset="0" style="stop-color:#CCEDFF"/>
		<stop  offset="1" style="stop-color:#9D68C2"/>
	</linearGradient>
	<rect x="457.3" y="141.4" class="st82" width="22.1" height="22.1"/>
	<linearGradient id="SVGID_59_" gradientUnits="userSpaceOnUse" x1="494.5263" y1="163.5717" x2="494.5263" y2="141.4314">
		<stop  offset="0" style="stop-color:#CCEDFF"/>
		<stop  offset="1" style="stop-color:#9D68C2"/>
	</linearGradient>
	<rect x="483.5" y="141.4" class="st83" width="22.1" height="22.1"/>
	<linearGradient id="SVGID_60_" gradientUnits="userSpaceOnUse" x1="441.8446" y1="163.5717" x2="441.8446" y2="141.4314">
		<stop  offset="0" style="stop-color:#CCEDFF"/>
		<stop  offset="1" style="stop-color:#9D68C2"/>
	</linearGradient>
	<rect x="430.8" y="141.4" class="st84" width="22.1" height="22.1"/>
	<rect x="449" y="176.5" class="st85" width="56.6" height="5.3"/>
	<rect x="434.8" y="184.6" class="st85" width="70.8" height="1.6"/>
	<rect x="435.5" y="166.4" class="st85" width="13.5" height="1.6"/>
	<rect x="461.6" y="166.4" class="st85" width="13.5" height="1.6"/>
	<rect x="487.8" y="166.4" class="st85" width="13.5" height="1.6"/>
	<rect x="430.8" y="187.2" class="st85" width="22.8" height="1.6"/>
	<rect x="434.8" y="189.9" class="st85" width="70.8" height="1.6"/>
	<rect x="430.8" y="192.5" class="st85" width="74.8" height="1.6"/>
	<rect x="430.8" y="195.1" class="st85" width="74.8" height="1.6"/>
	<rect x="434.8" y="205.8" class="st85" width="70.8" height="1.6"/>
	<rect x="430.8" y="208.4" class="st85" width="74.8" height="1.6"/>
	<rect x="430.8" y="211.1" class="st85" width="74.8" height="1.6"/>
	<rect x="430.8" y="197.8" class="st85" width="71.8" height="1.6"/>
	<rect x="434.8" y="200.4" class="st85" width="70.8" height="1.6"/>
	<rect x="430.8" y="203" class="st85" width="60.6" height="1.6"/>
	<g>
		<path class="st86" d="M371.5,178.1c-8,0-14.5-6.5-14.5-14.5s6.5-14.5,14.5-14.5c8,0,14.5,6.5,14.5,14.5S379.5,178.1,371.5,178.1z
			 M371.5,150c-7.5,0-13.5,6.1-13.5,13.5c0,7.5,6.1,13.5,13.5,13.5c7.5,0,13.5-6.1,13.5-13.5C385,156.1,379,150,371.5,150z"/>
	</g>
	<circle class="st9" cx="371.5" cy="163.6" r="7.9"/>
	<g>
		<path class="st86" d="M408.1,152.3c-8,0-14.5-6.5-14.5-14.5s6.5-14.5,14.5-14.5c8,0,14.5,6.5,14.5,14.5S416.1,152.3,408.1,152.3z
			 M408.1,124.3c-7.5,0-13.5,6.1-13.5,13.5c0,7.5,6.1,13.5,13.5,13.5c7.5,0,13.5-6.1,13.5-13.5C421.7,130.3,415.6,124.3,408.1,124.3
			z"/>
	</g>
	
		<ellipse transform="matrix(0.1554 -0.9878 0.9878 0.1554 208.563 519.5753)" class="st9" cx="408.1" cy="137.8" rx="7.4" ry="7.4"/>
	<g>
		<polygon class="st9" points="354.7,124.3 355.8,122.7 361.5,127.7 360.6,129 		"/>
		<polygon class="st9" points="361.6,124.3 360.6,122.7 354.9,127.7 355.7,129 		"/>
	</g>
	<rect x="459.9" y="123.8" class="st9" width="51.2" height="2.6"/>
</g>
<g class="st87">
	<polygon class="st88" points="190.2,86.7 190.2,108.9 216.8,109.2 217.2,86 	"/>
	<polygon class="st88" points="217.2,86 218.9,88.9 218.1,109.2 216.8,109.2 	"/>
	<polygon class="st88" points="195,94.2 197.5,90.6 210.7,101.8 208.7,104.5 	"/>
	<polygon class="st88" points="211.1,94.2 208.6,90.6 195.3,101.8 197.4,104.5 	"/>
</g>
<g>
	<g>
		<path class="st89" d="M252.3,348.4h-91c-4.1,0-7.4-3.2-7.5-7.3l-1.7-74.6c-0.1-4.2,3.3-7.6,7.5-7.6h94.8c4.2,0,7.6,3.5,7.5,7.7
			l-2,74.6C259.6,345.2,256.3,348.4,252.3,348.4z"/>
		<g>
			<path class="st10" d="M252.3,348.7h-91c-4.1,0-7.6-3.4-7.7-7.5l-1.7-74.6c0-2.1,0.7-4.1,2.2-5.6c1.5-1.5,3.4-2.3,5.5-2.3h94.8
				c2.1,0,4.1,0.8,5.5,2.3c1.5,1.5,2.2,3.5,2.2,5.6l-2,74.6C259.9,345.4,256.5,348.7,252.3,348.7z M159.6,259.1
				c-2,0-3.8,0.8-5.2,2.2c-1.4,1.4-2.1,3.3-2.1,5.2l1.7,74.6c0.1,3.9,3.3,7.1,7.2,7.1h91c3.9,0,7.1-3.1,7.2-7l2-74.6
				c0.1-2-0.7-3.8-2-5.2c-1.4-1.4-3.2-2.2-5.2-2.2H159.6z"/>
		</g>
		<g>
			<rect x="176.7" y="274.1" class="st10" width="47.9" height="2"/>
			<rect x="176.7" y="279.1" class="st10" width="23.9" height="2"/>
			<rect x="176.7" y="283.3" class="st10" width="23.9" height="2"/>
			<rect x="203.3" y="283.3" class="st10" width="19" height="2"/>
			<rect x="176.7" y="287.5" class="st10" width="38.6" height="2"/>
			<rect x="176.7" y="291.6" class="st10" width="13.7" height="2"/>
			<rect x="193.2" y="304.1" class="st10" width="23.7" height="2"/>
			<rect x="176.7" y="295.8" class="st10" width="43" height="2"/>
			<rect x="176.7" y="299.9" class="st10" width="33.1" height="2"/>
			<rect x="176.7" y="304.1" class="st10" width="15.6" height="2"/>
			<rect x="176.7" y="308.3" class="st10" width="23.9" height="2"/>
			<rect x="176.7" y="312.4" class="st10" width="6.9" height="2"/>
			<rect x="186.4" y="312.4" class="st10" width="24.9" height="2"/>
			<rect x="193.2" y="316.5" class="st10" width="23.7" height="2"/>
			<rect x="176.7" y="316.5" class="st10" width="15.6" height="2"/>
			<rect x="176.7" y="320.6" class="st10" width="23.9" height="2"/>
			<rect x="176.7" y="324.8" class="st10" width="6.9" height="2"/>
			<rect x="186.4" y="324.8" class="st10" width="24.9" height="2"/>
		</g>
	</g>
</g>
<g class="st90">
	<path class="st91" d="M168.7,266.2h-45.9c-3.7,0-6.7-2.9-6.9-6.6l-1-30.2c-0.1-3.9,3-7.1,6.9-7.1h47.9c3.9,0,7,3.2,6.9,7.1
		l-0.9,30.2C175.5,263.2,172.4,266.2,168.7,266.2z"/>
	<g>
		<path class="st88" d="M168.7,266.4h-45.9c-3.8,0-7-3-7.1-6.9l-1-30.2c-0.1-1.9,0.6-3.8,2-5.2c1.3-1.4,3.2-2.2,5.1-2.2h47.9
			c1.9,0,3.7,0.8,5.1,2.2c1.3,1.4,2.1,3.2,2,5.2l-0.9,30.2C175.7,263.4,172.6,266.4,168.7,266.4z M121.8,222.5c-1.8,0-3.5,0.7-4.8,2
			s-1.9,3-1.9,4.8l1,30.2c0.1,3.6,3,6.4,6.6,6.4h45.9c3.6,0,6.5-2.8,6.6-6.4l0.9-30.2c0.1-1.8-0.6-3.5-1.9-4.8c-1.3-1.3-2.9-2-4.8-2
			H121.8z"/>
	</g>
	<g>
		<polygon class="st88" points="135,233.1 123.7,246.2 135.3,256 135.3,251 128.6,245.2 134.8,238.2 		"/>
	</g>
	<g>
		<polygon class="st88" points="155,233.7 166.3,246.8 154.7,256.6 154.7,251.5 161.4,245.8 154,237.9 		"/>
	</g>
	<g>
		<polygon class="st88" points="137.5,256 147.4,234.3 152,234.3 140.8,256 		"/>
	</g>
</g>
<g>
	<path class="st92" d="M477.8,328.3h-57.5c-4.6,0-8.4-3.7-8.6-8.3l-1.3-37.8c-0.2-4.8,3.7-8.9,8.6-8.9h59.9c4.8,0,8.7,4,8.6,8.8
		l-1.2,37.8C486.2,324.6,482.4,328.3,477.8,328.3z"/>
	<g>
		<path class="st1" d="M477.8,328.6h-57.5c-4.8,0-8.6-3.7-8.8-8.5l-1.3-37.8c-0.1-2.4,0.8-4.7,2.5-6.4c1.7-1.7,3.9-2.7,6.3-2.7h59.9
			c2.4,0,4.7,1,6.3,2.7c1.7,1.7,2.6,4,2.5,6.4l-1.2,37.8C486.4,324.8,482.6,328.6,477.8,328.6z M419,273.6c-2.3,0-4.4,0.9-6,2.5
			c-1.6,1.6-2.4,3.8-2.3,6.1L412,320c0.2,4.5,3.8,8.1,8.3,8.1h57.5c4.5,0,8.2-3.6,8.3-8.1l1.2-37.8c0.1-2.3-0.8-4.4-2.4-6.1
			c-1.6-1.6-3.7-2.5-6-2.5H419z"/>
	</g>
	<rect x="422" y="279.5" class="st1" width="52.6" height="31.3"/>
	<polygon class="st1" points="443.6,287.2 443.6,303 457.1,294.4 	"/>
	<rect x="422" y="316.5" class="st1" width="52.6" height="2.9"/>
	<rect x="422" y="316.5" class="st1" width="13.6" height="2.9"/>
</g>
<g>
	<g>
		
			<linearGradient id="SVGID_61_" gradientUnits="userSpaceOnUse" x1="394.8495" y1="258.5131" x2="390.1678" y2="218.3307" gradientTransform="matrix(0.9656 0.26 -0.26 0.9656 63.6333 -54.681)">
			<stop  offset="0" style="stop-color:#1852A0"/>
			<stop  offset="1" style="stop-color:#067ED3"/>
		</linearGradient>
		<path class="st93" d="M383.4,269.6l-2.7,7.9C382.2,273.1,384.4,270.3,383.4,269.6z M380.7,277.4l-2.8,7.9
			C378.6,285.1,379.2,281.8,380.7,277.4z M383.4,269.6l-2.7,7.9C382.2,273.1,384.4,270.3,383.4,269.6z M380.7,277.4l-2.8,7.9
			C378.6,285.1,379.2,281.8,380.7,277.4z M388.6,284.3l2.7,1.5l2.9-7.9l-3.1-0.5c0.1-0.3,0.1-0.6,0.1-0.9c0.2-1.3,0.3-2.7,0.3-3.9
			l3.2-2l-1.5-6.9l-3.1,3c-0.4-0.9-1-1.7-1.6-2.3c-0.2-0.2-0.4-0.4-0.5-0.5l1.9-4.4l-5-1.6l0,0l-1.2,4.4c-1.1,0-2.3,0.3-3.4,0.8
			l-0.6-4.2l-5.5,4.2l1.3,3.7c-1,1.1-1.9,2.5-2.7,3.9l-2.7-1.5l-2.9,7.9l3.1,0.5c-0.3,1.7-0.5,3.3-0.4,4.8l-3.2,2l1.5,6.9l3.1-3
			c0.6,1.1,1.3,2.1,2.1,2.8l-1.9,4.4l5,1.9l0.8-2.8l0.5-1.9c1.1,0,2.3-0.3,3.4-0.8l0.5,4.2l5.5-4.2l-1.3-3.7c0.8-0.9,1.5-1.9,2.2-3
			C388.3,284.9,388.4,284.6,388.6,284.3z M380.7,277.4c-1.5,4.3,0,8.8-2.8,7.9c-2.8-1-3.8-5.3-2.2-9.6c1.5-4.3,5-7.1,7.7-6.1
			C386.2,270.5,382.2,273.1,380.7,277.4z M383.4,269.6l-2.7,7.9C382.2,273.1,384.4,270.3,383.4,269.6z M380.7,277.4l-2.8,7.9
			C378.6,285.1,379.2,281.8,380.7,277.4z"/>
	</g>
	
		<linearGradient id="SVGID_62_" gradientUnits="userSpaceOnUse" x1="390.3114" y1="258.6653" x2="390.3114" y2="217.4913" gradientTransform="matrix(0.9656 0.26 -0.26 0.9656 63.6333 -54.681)">
		<stop  offset="0" style="stop-color:#1852A0"/>
		<stop  offset="1" style="stop-color:#067ED3"/>
	</linearGradient>
	<path class="st94" d="M391.3,285.8l2.9-7.9l-2.9-1.4l-0.5-0.2l0.3-4.3l3.3-1.6l-1.1-6.7l-7.1-2.3l1.3,3.1l2.5-5l-5-1.6l-2.1-0.7
		l-5-1.9l-0.9,3.4l-4.3-2.1l-5.5,4.2l1.7,4.5l-5.2,14.4l-2.6,9.3l4.9,0.5l-1.6,3.7l5,1.9l7.1,2.3l-1.1-2.3l-0.7-1.4l2.6,0.9l4.5,1.5
		l5.5-4.2l-3.4-4l4.3-2.7L391.3,285.8z M375.7,275.7c1.5-4.3,5-7.1,7.7-6.1l-2.7,7.9l-2.8,7.9C375.2,284.3,374.2,280,375.7,275.7z"
		/>
	<g>
		
			<linearGradient id="SVGID_63_" gradientUnits="userSpaceOnUse" x1="351.872" y1="279.1142" x2="348.8438" y2="253.123" gradientTransform="matrix(0.9438 0.3306 -0.5202 1.4851 181.3359 -235.9143)">
			<stop  offset="0" style="stop-color:#188DC1"/>
			<stop  offset="1" style="stop-color:#06BFE7"/>
		</linearGradient>
		<path class="st95" d="M384.2,283.4l2.9-7.9l-3.1-0.5c0.3-1.7,0.5-3.3,0.4-4.8l3.2-2l-1.5-6.9l-3.1,3c-0.5-1.1-1.3-2.1-2.1-2.8
			l1.9-4.4l-5-1.9l-1.3,4.7c-1.1,0-2.3,0.3-3.4,0.8l-0.5-4.2l-5.5,4.2l1.3,3.7c-1,1.1-1.9,2.5-2.7,3.9l-2.7-1.5l-2.9,7.9l3.1,0.5
			c-0.3,1.7-0.5,3.3-0.4,4.8l-3.2,2l1.5,6.9l3.1-3c0.5,1.1,1.3,2.1,2.1,2.8l-1.9,4.4l5,1.9l1.3-4.7c1.1,0,2.3-0.3,3.4-0.8l0.5,4.2
			l5.5-4.2l-1.3-3.7c1-1.1,1.9-2.5,2.7-3.9L384.2,283.4z M370.8,283c-2.8-1-3.8-5.3-2.2-9.6c1.5-4.3,5-7.1,7.7-6.1
			c2.8,1,3.8,5.3,2.2,9.6C377,281.2,373.6,283.9,370.8,283z"/>
	</g>
	<polygon class="st96" points="394.7,270.6 387.6,268.3 384.4,270.3 391.5,272.6 	"/>
	<polygon class="st97" points="387.2,291.9 380.1,289.6 378.8,285.9 385.9,288.2 	"/>
	<polygon class="st96" points="380.9,261.5 384.8,262.6 386.1,261.3 388.7,262.2 389.9,259.4 382.8,257.1 	"/>
	<path class="st96" d="M370.6,290.4l3.7,1.5l-0.3-2.3C374,289.6,372,290.7,370.6,290.4z"/>
	<path class="st96" d="M371.1,269.1l6.3,3.3c0,0,0.9-1.2,1.6-1.7C379,270.7,377.4,263.8,371.1,269.1z"/>
</g>
<g>
	<linearGradient id="SVGID_64_" gradientUnits="userSpaceOnUse" x1="405.791" y1="82.9207" x2="416.4567" y2="43.3103">
		<stop  offset="0" style="stop-color:#188DC1"/>
		<stop  offset="1" style="stop-color:#06BFE7"/>
	</linearGradient>
	<polygon class="st98" points="392.5,79.3 391.1,47.7 432.6,47.7 430.9,79.3 	"/>
	<linearGradient id="SVGID_65_" gradientUnits="userSpaceOnUse" x1="387.4579" y1="78.3512" x2="395.4115" y2="48.8129">
		<stop  offset="0" style="stop-color:#1852A0"/>
		<stop  offset="1" style="stop-color:#067ED3"/>
	</linearGradient>
	<polygon class="st99" points="391.1,47.7 389.9,49.5 391.1,79.3 392.5,79.3 	"/>
	<polygon class="st9" points="404.9,54 398.4,53.3 399.3,75 404.9,74.4 404.9,72.2 401.7,72.3 401.3,55.5 404.9,55.6 	"/>
	<polygon class="st9" points="418.2,54 424.8,53.3 423.9,75 418.2,74.4 418.2,72.2 421.5,72.3 421.9,55.5 418.2,55.6 	"/>
</g>
<g>
	
		<linearGradient id="SVGID_66_" gradientUnits="userSpaceOnUse" x1="109.2332" y1="151.1354" x2="116.5042" y2="124.1321" gradientTransform="matrix(-1 0 0 1 206.6559 0)">
		<stop  offset="0" style="stop-color:#188DC1"/>
		<stop  offset="1" style="stop-color:#06BFE7"/>
	</linearGradient>
	<polygon class="st100" points="106.5,148.7 107.4,127.1 79.1,127.1 80.3,148.6 	"/>
	
		<linearGradient id="SVGID_67_" gradientUnits="userSpaceOnUse" x1="96.7351" y1="148.0203" x2="102.1573" y2="127.8834" gradientTransform="matrix(-1 0 0 1 206.6559 0)">
		<stop  offset="0" style="stop-color:#1852A0"/>
		<stop  offset="1" style="stop-color:#067ED3"/>
	</linearGradient>
	<polygon class="st101" points="107.4,127.1 108.3,128.4 107.4,148.7 106.5,148.7 	"/>
	<path class="st9" d="M96.5,131.4c0,0,3.1-0.1,3.6,0.1c0.5,0.3-0.1,5.3-0.1,5.3l1.2,1.1l-1.2,1.1c0,0,0.1,5.1-0.7,5.5
		c-0.7,0.4-3.2,0-3.2,0v-1.3c0,0,2,0.1,2.4-0.1c0.3-0.3,0.3-4.7,0.3-4.7l0.5-0.6l-0.5-0.6c0,0,0.1-3.2,0-4.1c0-0.6-2.4-0.6-2.4-0.6
		V131.4z"/>
	<path class="st9" d="M89.4,131.4c0,0-3.1-0.1-3.6,0.1s0.1,5.3,0.1,5.3l-1.2,1.1l1.2,1.1c0,0-0.1,5.1,0.7,5.5c0.7,0.4,3.2,0,3.2,0
		v-1.3c0,0-2,0.1-2.4-0.1c-0.3-0.3-0.3-4.7-0.3-4.7l-0.5-0.6l0.5-0.6c0,0-0.1-3.2,0-4.1c0-0.6,2.4-0.6,2.4-0.6V131.4z"/>
</g>
<polyline class="st102" points="17.2,388.6 17.7,0 582.4,0 582,388.6 "/>
<g>
	<path class="st9" d="M276,190l0.3,0.2c0.2,0.2,0.2,0.6,0,0.8c-0.5,0.4-1.2,0.6-1.9,0.6c-1.7-0.1-3.1-1.5-3-3.2
		c0.1-1.7,1.5-3.1,3.2-3c0.8,0,1.5,0.3,2,0.8c0.2,0.2,0.2,0.6,0,0.8l-0.3,0.2c-0.2,0.2-0.5,0.2-0.7,0c-0.3-0.3-0.7-0.4-1.2-0.4
		c-0.9,0-1.6,0.7-1.7,1.6c-0.1,1,0.7,1.8,1.7,1.9c0.4,0,0.7-0.1,1-0.3C275.5,189.8,275.8,189.8,276,190z"/>
	<path class="st9" d="M282.8,188.8c-0.1,1.7-1.5,3.1-3.2,3c-1.7-0.1-3.1-1.5-3-3.2c0.1-1.7,1.5-3.1,3.2-3
		C281.5,185.7,282.9,187.1,282.8,188.8z M281.4,188.7c0-0.9-0.7-1.7-1.7-1.8c-0.9,0-1.7,0.7-1.8,1.7c0,0.9,0.7,1.7,1.7,1.8
		C280.6,190.4,281.4,189.7,281.4,188.7z"/>
	<path class="st9" d="M287.1,190.3c-0.1,0.6-0.5,1.2-1.1,1.5c-0.3,0.1-0.6,0.2-0.9,0.2c-0.6,0-1.3-0.3-1.7-0.8
		c-0.2-0.2-0.2-0.6,0.1-0.8l0.2-0.1c0.2-0.1,0.5-0.1,0.6,0.1c0.3,0.3,0.7,0.4,1.1,0.3c0.2-0.1,0.3-0.2,0.3-0.4
		c0-0.1-0.1-0.4-0.9-0.7l-0.1-0.1c-0.4-0.2-1.1-0.4-1.4-1c-0.3-0.5-0.3-1.1-0.1-1.6c0.2-0.5,0.7-0.9,1.3-1c0.5-0.1,1.3-0.2,1.9,0.2
		c0.2,0.1,0.3,0.3,0.4,0.4c0.2,0.3,0,0.8-0.4,0.8l-0.3,0c-0.2,0-0.3,0-0.4-0.1c0,0,0,0-0.1,0c-0.2-0.1-0.5-0.1-0.8-0.1
		c-0.2,0.1-0.4,0.2-0.4,0.3c-0.1,0.1-0.1,0.3,0,0.4c0.1,0.2,0.4,0.3,0.7,0.4l0.2,0.1C285.8,188.5,287.2,189,287.1,190.3z"/>
	<path class="st9" d="M296.7,190.8c0.4,0,0.7,0.4,0.7,0.8c0,0.4-0.4,0.7-0.8,0.7c-0.4,0-0.7-0.4-0.7-0.8
		C295.9,191.1,296.3,190.8,296.7,190.8z M297.7,190c-0.2,0.2-0.5,0.3-0.7,0.1l-0.5-0.3c-0.3-0.2-0.5-0.6-0.5-1l0.1-4.3
		c0-0.3,0.2-0.5,0.5-0.5l0.3,0c0.3,0,0.5,0.3,0.5,0.5l-0.1,4.2l0.4,0.3c0.2,0.2,0.3,0.5,0.1,0.7L297.7,190z"/>
	<path class="st9" d="M304.5,189.5l-0.1,2.6c0,0.3-0.2,0.5-0.5,0.5l-0.4,0c-0.3,0-0.5-0.2-0.5-0.5l0.1-2.6c0-0.9-0.7-1.7-1.7-1.8
		c-0.5,0-0.9,0.2-1.2,0.4c-0.1,0.1-0.2,0.2-0.3,0.4l-0.1,3.4c0,0.3-0.2,0.5-0.5,0.5l-0.4,0c-0.3,0-0.5-0.2-0.5-0.5l0.1-4.2l-0.4-0.3
		c-0.2-0.2-0.3-0.5-0.1-0.7l0.2-0.3c0.2-0.2,0.5-0.3,0.7-0.1l1,0.7l0,0.1c0.4-0.4,1-0.8,1.7-0.8
		C304.6,186.4,304.5,188.7,304.5,189.5z"/>
	<path class="st9" d="M305.1,185c0-0.4,0.4-0.7,0.8-0.7c0.4,0,0.7,0.4,0.7,0.8c0,0.4-0.4,0.7-0.8,0.7
		C305.4,185.8,305.1,185.4,305.1,185z M306.8,187.7l-0.4,0.2l-0.1,4.2c0,0.3-0.3,0.5-0.5,0.5l-0.3,0c-0.3,0-0.5-0.2-0.5-0.5l0.1-4.3
		c0-0.4,0.2-0.8,0.5-1l0.5-0.3c0.2-0.2,0.6-0.1,0.7,0.2l0.2,0.3C307.1,187.2,307,187.5,306.8,187.7z"/>
	<path class="st9" d="M291.7,184.3L291.7,184.3c-0.1,0.2-0.3,0.3-0.5,0.3c-0.1,0-0.3,0-0.4,0c-0.5,0-1.2,0-1.3,1.3l0,0.3l1.2,0
		c0.2,0,0.3,0.2,0.3,0.4l0,0.3c0,0.2-0.2,0.3-0.4,0.3l-1.2,0l-0.1,4.4c0,0.3-0.2,0.5-0.5,0.5l-0.4,0c-0.3,0-0.5-0.2-0.5-0.5l0.1-4.4
		l-0.3,0c-0.2,0-0.3-0.1-0.3-0.3l0-0.4c0-0.2,0.1-0.3,0.3-0.3l0.3,0l0-0.3c0,0,0-0.1,0-0.1l0-0.1l0,0c0.1-0.6,0.4-2.3,2.1-2.3
		c0.3,0,0.6,0,0.8,0C291.5,183.4,291.8,183.9,291.7,184.3z"/>
	<path class="st9" d="M295.6,184.4L295.6,184.4c-0.1,0.2-0.3,0.3-0.5,0.3c-0.1,0-0.3,0-0.4,0c-0.5,0-1.2,0-1.3,1.3l0,0.3l1.2,0
		c0.2,0,0.3,0.2,0.3,0.4l0,0.3c0,0.2-0.2,0.3-0.4,0.3l-1.2,0l-0.1,4.4c0,0.3-0.2,0.5-0.5,0.5l-0.4,0c-0.3,0-0.5-0.2-0.5-0.5l0.1-4.4
		l-0.3,0c-0.2,0-0.3-0.1-0.3-0.3l0-0.4c0-0.2,0.1-0.3,0.3-0.3l0.3,0l0-0.3c0,0,0-0.1,0-0.1l0-0.1l0,0c0.1-0.6,0.4-2.3,2.1-2.3
		c0.3,0,0.6,0,0.8,0C295.5,183.5,295.8,184,295.6,184.4z"/>
	<g>
		<text transform="matrix(0.9995 3.155007e-02 -3.155007e-02 0.9995 287.0718 194.7286)" class="st9 st103 st104">SOLUES WEB</text>
	</g>
</g>
</svg>
